<ttFont>
<head>
    <!-- Most of this table will be recalculated by the compiler -->
    <tableVersion value="1.0"/>
    <fontRevision value="1.09"/>
    <checkSumAdjustment value="0x28b0ca19"/>
    <magicNumber value="0x5f0f3cf5"/>
    <flags value="00000000 00000011"/>
    <unitsPerEm value="1000"/>
    <created value="Sun Oct  7 02:25:32 2018"/>
    <modified value="Sun Oct  7 02:25:32 2018"/>
    <xMin value="-323"/>
    <yMin value="-291"/>
    <xMax value="2077"/>
    <yMax value="969"/>
    <macStyle value="00000000 00000010"/>
    <lowestRecPPEM value="3"/>
    <fontDirectionHint value="2"/>
    <indexToLocFormat value="0"/>
    <glyphDataFormat value="0"/>
  </head>
          <CharString index="0">
            228 -12 rmoveto
            63 55 24 28 39 hvcurveto
            -30 51 rlineto
            -23 -31 -40 -19 -38 hhcurveto
            -85 -65 53 127 18 hvcurveto
            316 hlineto
            7 18 10 37 38 vvcurveto
            100 -41 76 -109 -127 -133 -124 -183 -130 76 -73 115 vhcurveto
            -106 293 rmoveto
            94 25 70 62 71 159 callsubr
            -15 -3 -15 hvcurveto
            return
          </CharString>
          <CharString index="1">
            287 -12 rmoveto
            188 131 205 201 105 callsubr
            -166 80 -109 147 hvcurveto
            4 67 rmoveto
            -105 -47 86 204 callsubr
            95 178 141 104 48 -85 -129 -153 -95 -179 -141 hvcurveto
            return
          </CharString>
          <CharString index="2">
            rmoveto
            37 72 33 66 35 76 rrcurveto
            4 hlineto
            5 -75 7 -70 6 -69 10 -112 rcurveline
            -195 hlineto
            -222 -265 rmoveto
            86 hlineto
            105 205 109 callsubr
            18 -205 rlineto
            81 hlineto
            -76 656 rlineto
            -90 hlineto
            return
          </CharString>
          <CharString index="3">
            212 -12 rmoveto
            133 130 131 184 121 -69 74 -105 -133 -129 -131 -184 -121 68 -74 105 hvcurveto
            -96 callgsubr
            return
          </CharString>
          <CharString index="4">
            -102 callgsubr
            endchar
          </CharString>
          <CharString index="5">
            -52 hhcurveto
            -62 callsubr
            -16 callsubr
            hvcurveto
            28 64 -63 callgsubr
            return
          </CharString>
          <CharString index="6">
            hhcurveto
            -50 -22 -95 callsubr
            -6 -26 -2 92 callgsubr
            33 -47 82 return
          </CharString>
          <CharString index="7">
            14 66 rlineto
            -294 23 callsubr
            239 14 callgsubr
            -241 hlineto
            42 213 rlineto
            285 113 callgsubr
            -362 hlineto
            return
          </CharString>
          <CharString index="8">
            300 -12 rmoveto
            75 63 27 40 48 180 callsubr
            rlineto
            -206 hlineto
            -13 -64 rlineto
            136 hlineto
            -37 -181 rlineto
            -22 -26 -38 -18 -48 hhcurveto
            -126 -48 89 117 159 100 182 165 53 36 -29 -42 25 hvcurveto
            55 41 rlineto
            56 -33 -54 41 -78 -23 callgsubr
            return
          </CharString>
          <CharString index="9">
            231 -12 rmoveto
            133 95 84 117 73 -36 44 -63 37 hvcurveto
            -76 45 rlineto
            -48 29 -37 27 51 vvcurveto
            53 45 53 74 61 46 -31 -40 34 vhcurveto
            51 46 rlineto
            53 -41 -67 39 -78 hhcurveto
            -118 -86 -83 -99 -74 45 -46 56 -34 hvcurveto
            76 -46 rlineto
            49 -30 33 -30 -48 vvcurveto
            -75 -61 -49 -80 -73 -57 35 58 -39 vhcurveto
            -57 -43 rlineto
            -78 53 76 -38 90 hhcurveto
            return
          </CharString>
          <CharString index="10">
            -6 -209 rmoveto
            93 59 73 95 51 hvcurveto
            286 527 rlineto
            -76 hlineto
            -140 -273 -24 -46 -25 -53 -23 -46 rlinecurve
            -4 hlineto
            -4 46 -5 55 -7 44 -38 273 rcurveline
            -76 hlineto
            83 -487 -18 -35 rlineto
            -67 -33 -45 -44 -49 hhcurveto
            -13 -11 3 6 -12 hvcurveto
            -25 -57 rlineto
            -10 19 23 -4 14 hhcurveto
            return
          </CharString>
          <CharString index="11">
            rmoveto
            -67 -37 48 88 136 88 111 89 67 37 -49 -88 13 callsubr
            -90 hvcurveto
            return
          </CharString>
          <CharString index="12">
            26 49 -8 callgsubr
            hvcurveto
            61 300 -15 callgsubr
            -62 -310 rlineto
            return
          </CharString>
          <CharString index="13">
            -27 -38 hhcurveto
            -50 -22 26 49 -8 callgsubr
            hvcurveto
            61 300 -15 callgsubr
            return
          </CharString>
          <CharString index="14">
            10 callgsubr
            hintmask 01011100
            -32 callgsubr
            hintmask 10101100
            -106 callgsubr
            return
          </CharString>
          <CharString index="15">
            rmoveto
            116 66 138 124 87 -46 65 -77 -116 -66 -138 -124 -87 46 -65 77 hvcurveto
            5 50 rmoveto
            -49 -20 45 61 96 43 112 75 49 20 -45 -61 -96 -43 -112 -75 hvcurveto
            return
          </CharString>
          <CharString index="16">
            35 hmoveto
            370 hlineto
            -100 callsubr
            return
          </CharString>
          <CharString index="17">
            103 79 59 91 59 -32 33 -82 46 hvcurveto
            -43 24 -43 22 40 vvcurveto
            41 36 35 51 44 34 -20 -26 25 vhcurveto
            46 40 rlineto
            40 -37 -50 26 -61 hhcurveto
            -88 -73 -59 -86 -55 42 -39 61 -35 hvcurveto
            75 -42 22 -19 -35 vvcurveto
            -47 -47 -34 -56 return
          </CharString>
          <CharString index="18">
            rmoveto
            79 72 60 91 70 -46 44 -65 -15 -22 -4 -11 -17 hvcurveto
            29 101 rlineto
            158 hlineto
            10 51 rlineto
            -207 hlineto
            -52 -187 23 -23 rlineto
            18 25 19 11 30 hhcurveto
            42 28 -28 -48 -58 -45 -38 -44 -50 -6 callgsubr
            66 hhcurveto
            return
          </CharString>
          <CharString index="19">
            286 -12 rmoveto
            117 92 74 189 37 hvcurveto
            75 370 rlineto
            75 12 58 42 76 vvcurveto
            19 -4 17 -8 21 vhcurveto
            -62 -21 rlineto
            6 -16 2 -13 -13 vvcurveto
            -53 -39 -32 -66 -4 vhcurveto
            -31 hlineto
            -81 -402 rlineto
            -143 -28 -64 -56 -75 hhcurveto
            -92 -41 53 94 24 3 25 6 30 hvcurveto
            75 375 110 callgsubr
            -368 rlineto
            -6 -33 -4 -32 -28 vvcurveto
            -136 74 -71 133 vhcurveto
            return
          </CharString>
          <CharString index="20">
            139 hmoveto
            77 hlineto
            52 256 274 400 rlineto
            -83 hlineto
            -124 -188 -32 -48 -29 -47 -30 -49 rlinecurve
            -3 hlineto
            -12 50 -9 45 -12 48 -45 189 rcurveline
            -80 hlineto
            107 -400 rlineto
            return
          </CharString>
          <CharString index="21">
            hstem
            79 78 vstem
            -105 callgsubr
            return
          </CharString>
          <CharString index="22">
            -82 callsubr
            endchar
          </CharString>
          <CharString index="23">
            120 callgsubr
            hintmask 11010100
            -44 callgsubr
            hintmask 11101000
            39 callsubr
            hintmask 11010100
            -48 callgsubr
            hintmask 11101000
            -54 callgsubr
          </CharString>
          <CharString index="24">
            77 vstem
            35 hmoveto
            -68 callgsubr
            15 -315 rmoveto
            50 253 rlineto
            96 hlineto
            96 51 -29 -72 -93 -69 -59 -125 hvcurveto
            return
          </CharString>
          <CharString index="25">
            106 2 75 34 66 vvcurveto
            36 -19 23 -86 7 vhcurveto
            -23 -37 rlineto
            45 -2 18 -14 -23 vvcurveto
            -29 -37 -21 -80 -3 vhcurveto
            return
          </CharString>
          <CharString index="26">
            14 callgsubr
            -81 hlineto
            105 525 rlineto
            81 hlineto
            14 65 rlineto
            -238 hlineto
            -14 -65 rlineto
            80 hlineto
            -106 -525 31 callgsubr
            return
          </CharString>
          <CharString index="27">
            -73 8 -20 14 33 vvcurveto
            22 16 21 17 12 vhcurveto
            -6 14 16 -3 20 hhcurveto
            117 85 85 116 24 -9 27 -15 20 hvcurveto
            96 hlineto
            12 60 rlineto
            -166 hlineto
            return
          </CharString>
          <CharString index="28">
            rmoveto
            56 37 38 39 40 35 -30 -76 vhcurveto
            -6 vlineto
            -34 -26 -34 -15 -28 hhcurveto
            -39 -24 26 41 hvcurveto
            8 -271 rmoveto
            104 96 92 170 93 -56 59 -71 -69 -68 -57 -91 -61 40 -45 66 39 36 21 24 22 hvcurveto
            -101 -14 -57 -55 -63 hhcurveto
            -29 -21 9 18 -19 hvcurveto
            -34 -38 rlineto
            -25 25 33 -13 40 hhcurveto
            endchar
          </CharString>
          <CharString index="29">
            rmoveto
            172 100 -37 60 -165 -116 rlineto
            endchar
          </CharString>
          <CharString index="30">
            rmoveto
            86 hlineto
            125 111 -33 28 -130 150 callsubr
            -90 93 -39 -25 rlineto
            endchar
          </CharString>
          <CharString index="31">
            73 13 50 33 5 55 5 55 -42 30 -87 2 -15 -53 rcurveline
            51 -3 26 -13 -2 -26 -2 -27 -23 -18 -41 -9 rrcurveto
            return
          </CharString>
          <CharString index="32">
            vstem
            -78 callgsubr
            return
          </CharString>
          <CharString index="33">
            rmoveto
            26 22 23 28 23 -14 14 -23 57 callgsubr
            185 hmoveto
            26 22 23 28 23 -15 14 -22 57 callgsubr
            return
          </CharString>
          <CharString index="34">
            rmoveto
            -85 callsubr
          </CharString>
          <CharString index="35">
            -58 -377 rmoveto
            -67 -50 23 55 41 51 36 40 19 hvcurveto
            21 -5 22 -4 16 -2 rrcurveto
            79 -9 40 -18 -42 vvcurveto
            -53 -65 -41 -87 vhcurveto
            return
          </CharString>
          <CharString index="36">
            -87 callgsubr
            endchar
          </CharString>
          <CharString index="37">
            216 -12 rmoveto
            71 50 30 27 35 hvcurveto
            -34 50 rlineto
            -23 -30 -35 -20 -43 hhcurveto
            -77 -38 48 88 133 91 114 97 38 23 -14 -30 25 hvcurveto
            45 48 rlineto
            33 -29 -39 26 -58 hhcurveto
            -141 -130 -134 -181 -124 73 -71 106 hvcurveto
            return
          </CharString>
          <CharString index="38">
            18 callgsubr
            hintmask 11101000
            -85 callgsubr
            hintmask 11110000
            -60 callsubr
            endchar
          </CharString>
          <CharString index="39">
            rlineto
            63 -36 callgsubr
            return
          </CharString>
          <CharString index="40">
            vstem
            35 hmoveto
            73 hlineto
            74 370 11 59 9 75 8 59 rlinecurve
            4 hlineto
            22 -146 61 -348 rlineto
            44 hlineto
            193 348 79 146 rlineto
            4 hlineto
            -16 -57 -19 -77 -12 -59 -76 -370 rcurveline
            75 62 callsubr
            -93 hlineto
            -195 -354 -70 -136 1 callsubr
            -22 136 -57 354 rlineto
            -93 hlineto
            return
          </CharString>
          <CharString index="41">
            16 -24 -28 -23 -25 -30 -37 callsubr
            return
          </CharString>
          <CharString index="42">
            hintmask 10111110
            -60 callgsubr
            hintmask 01111110
            -8 -74 rlineto
            63 hlineto
            97 486 rlineto
            -76 -35 callgsubr
            return
          </CharString>
          <CharString index="43">
            47 -224 53 325 52 220 60 -44 169 callgsubr
            hintmask 1110101100000000
            -40 callgsubr
            hintmask 1110010010000000
            -80 callsubr
            hintmask 1101001010000000
            -43 callgsubr
            hintmask 1110010010000000
            -9 callsubr
            hintmask 1110101010000000
            108 callsubr
            hintmask 1110101100000000
            143 callgsubr
            hintmask 1101001010000000
            -47 callsubr
            hintmask 1110101100000000
            -72 callsubr
            return
          </CharString>
          <CharString index="44">
            hstem
            32 75 254 76 vstem
            -107 callgsubr
            return
          </CharString>
          <CharString index="45">
            -135 -128 -147 -187 return
          </CharString>
          <CharString index="46">
            331 -12 61 180 52 -31 51 135 62 -61 61 hstemhm
            32 75 233 64 -49 49 258 66 hintmask 1100111010000000
            157 -12 rmoveto
            72 65 36 60 64 hvcurveto
            -54 23 60 -42 70 hhcurveto
            62 54 24 28 38 hvcurveto
            -30 51 rlineto
            -23 -30 -41 -19 -38 hhcurveto
            -84 -52 69 111 17 hvcurveto
            304 hlineto
            6 18 11 37 38 vvcurveto
            100 -42 76 -109 -61 -61 -36 -59 -45 vhcurveto
            64 -11 -46 31 -66 hhcurveto
            -59 -63 -22 -28 -51 hvcurveto
            hintmask 1011010110000000
            21 -56 rlineto
            26 46 48 18 42 hhcurveto
            60 24 -32 -59 -14 -1 -12 -4 -18 hvcurveto
            -186 -6 -132 -51 -138 vvcurveto
            hintmask 1100111010000000
            -76 57 -42 68 vhcurveto
            28 61 rmoveto
            -45 -33 26 47 hvcurveto
            hintmask 1010111010000000
            81 88 43 145 4 vhcurveto
            -7 -43 0 -30 5 -42 rrcurveto
            hintmask 1100111010000000
            -58 -55 -57 -28 -41 hhcurveto
            230 232 rmoveto
            94 24 68 62 61 159 callsubr
            -14 -3 -16 hvcurveto
            return
          </CharString>
          <CharString index="47">
            76 31 -32 -39 -44 -38 -28 -47 -44 -6 callgsubr
            65 hhcurveto
            return
          </CharString>
          <CharString index="48">
            rmoveto
            70 49 51 60 53 -41 29 -55 -69 -49 -51 -60 -53 41 -29 54 hvcurveto
            5 36 rmoveto
            -31 -17 20 29 39 28 33 33 31 18 -21 -28 -39 -28 -33 -34 hvcurveto
            endchar
          </CharString>
          <CharString index="49">
            rmoveto
            60 47 44 79 16 163 callgsubr
            -44 -13 -21 -23 -26 -45 -17 72 -69 hhcurveto
            return
          </CharString>
          <CharString index="50">
            31 hmoveto
            76 hlineto
            -39 callsubr
            -61 -300 rlineto
            77 hlineto
            62 310 rlineto
            5 27 3 17 23 vvcurveto
            75 -34 46 -81 -50 -60 -36 -59 -62 vhcurveto
            53 -7 -28 42 -77 hhcurveto
            -51 -57 179 callgsubr
            return
          </CharString>
          <CharString index="51">
            rmoveto
            52 hlineto
            484 684 rlineto
            -52 hlineto
            return
          </CharString>
          <CharString index="52">
            15 -22 -28 -23 -26 -29 -37 callsubr
            return
          </CharString>
          <CharString index="53">
            -191 -5 -132 -52 -138 vvcurveto
            return
          </CharString>
          <CharString index="54">
            -51 callgsubr
            hintmask 10101111
            return
          </CharString>
          <CharString index="55">
            62 -203 51 140 200 callgsubr
            -25 61 218 76 hintmask 11110110
            157 -203 -34 callsubr
            35 28 47 45 27 hvcurveto
            31 20 28 19 36 24 rrcurveto
            55 callsubr
            hintmask 11111010
            165 callsubr
            2 hlineto
            hintmask 11110110
            -37 -31 -36 -45 -48 vvcurveto
            -45 32 -22 43 vhcurveto
            hintmask 11111010
            189 453 rmoveto
            -27 -135 rlineto
            -43 -49 -44 -23 -41 hhcurveto
            -45 -33 23 50 81 88 43 151 4 hvcurveto
            return
          </CharString>
          <CharString index="56">
            rlineto
            6 27 2 17 23 vvcurveto
            75 -33 46 -82 return
          </CharString>
          <CharString index="57">
            -60 -47 -45 -78 -16 hvcurveto
            54 -4 rlineto
            43 13 22 24 25 hhcurveto
            return
          </CharString>
          <CharString index="58">
            vstem
            -1 hmoveto
            426 hlineto
            15 66 rlineto
            -331 hlineto
            422 544 10 46 rlineto
            -393 hlineto
            -14 -65 rlineto
            300 hlineto
            -425 -544 rlineto
            return
          </CharString>
          <CharString index="59">
            -3 -9 -3 0 -4 hhcurveto
            -10 -7 6 12 4 0 5 2 10 hvcurveto
            return
          </CharString>
          <CharString index="60">
            65 430 rmoveto
            -48 -30 36 56 73 54 71 73 48 29 -37 -55 -73 -54 -71 -72 hvcurveto
            return
          </CharString>
          <CharString index="61">
            65 hlineto
            29 126 43 110 124 120 4 34 rcurveline
            -261 hlineto
            -10 -51 rlineto
            193 hlineto
            -98 -104 -56 -106 -33 -129 rrcurveto
            return
          </CharString>
          <CharString index="62">
            -24 callsubr
            125 callgsubr
          </CharString>
          <CharString index="63">
            rmoveto
            75 32 58 65 92 vvcurveto
            43 -22 25 -31 -33 -22 -27 -30 -29 21 -16 29 148 callgsubr
            -36 -34 -51 -62 -31 vhcurveto
            return
          </CharString>
          <CharString index="64">
            rmoveto
            28 23 26 28 26 -18 -55 callsubr
            return
          </CharString>
          <CharString index="65">
            -7 -15 -17 -8 -19 hhcurveto
            -46 -16 20 40 13 1 11 2 12 hvcurveto
            return
          </CharString>
          <CharString index="66">
            105 hmoveto
            92 hlineto
            118 266 20 46 19 49 20 48 rlinecurve
            4 hlineto
            1 -48 1 -49 1 -46 14 -266 rcurveline
            95 hlineto
            221 486 rlineto
            -72 hlineto
            return
          </CharString>
          <CharString index="67">
            107 -12 -31 callgsubr
            return
          </CharString>
          <CharString index="68">
            22 callsubr
            57 51 27 29 hhcurveto
            48 68 callgsubr
            22 callsubr
            58 51 27 28 hhcurveto
            48 23 -53 callgsubr
            return
          </CharString>
          <CharString index="69">
            -24 callgsubr
            -49 -53 -30 -51 hhcurveto
            return
          </CharString>
          <CharString index="70">
            -25 17 -15 23 hvcurveto
            return
          </CharString>
          <CharString index="71">
            30 11 14 23 hvcurveto
            -16 38 rlineto
            -8 -13 -11 84 callgsubr
            return
          </CharString>
          <CharString index="72">
            -48 callsubr
            125 623 -15 callgsubr
            return
          </CharString>
          <CharString index="73">
            rmoveto
            23 31 11 14 22 hvcurveto
            -16 38 rlineto
            -8 -12 -12 -4 -13 173 callgsubr
            23 return
          </CharString>
          <CharString index="74">
            -123 -619 rlineto
            -4 -17 -2 -14 -11 vvcurveto
            -40 22 -23 43 vhcurveto
            return
          </CharString>
          <CharString index="75">
            62 -12 61 201 51 135 62 return
          </CharString>
          <CharString index="76">
            -40 callsubr
            179 51 -2 callgsubr
            13 518 -62 callgsubr
            return
          </CharString>
          <CharString index="77">
            194 callgsubr
            78 -7 callgsubr
            return
          </CharString>
          <CharString index="78">
            -14 -68 -8 -76 -8 -65 rrcurveto
            20 callsubr
            return
          </CharString>
          <CharString index="79">
            rmoveto
            48 36 -114 177 -66 -49 rlineto
            endchar
          </CharString>
          <CharString index="80">
            -17 286 rlineto
            -75 hlineto
            -128 -286 -21 -46 -17 -45 -20 -45 rlinecurve
            -4 hlineto
            -1 45 -1 45 -1 46 -16 286 rcurveline
            -76 hlineto
            return
          </CharString>
          <CharString index="81">
            -12 61 180 52 156 61 return
          </CharString>
          <CharString index="82">
            -97 387 45 -37 37 126 38 82 46 hstemhm
            86 56 159 57 hintmask 10111100
            86 465 rmoveto
            -50 36 -28 45 35 41 20 26 26 vhcurveto
            4 hlineto
            hintmask 01111100
            -4 -38 rlineto
            47 hlineto
            37 187 rlineto
            2 15 3 17 13 vvcurveto
            69 -37 28 -66 -40 -42 -14 -18 -35 vhcurveto
            18 -41 rlineto
            15 32 28 12 28 hhcurveto
            40 17 -20 -37 -8 -1 -6 -3 -11 hvcurveto
            hintmask 10111100
            -121 -5 -90 -34 -92 vvcurveto
            205 93 rmoveto
            -17 -82 rlineto
            -27 -29 -29 -17 -29 hhcurveto
            -26 -19 14 30 52 58 27 91 3 hvcurveto
            endchar
          </CharString>
          <CharString index="83">
            rmoveto
            28 24 23 30 26 -17 -66 callsubr
            return
          </CharString>
          <CharString index="84">
            194 callsubr
            13 67 rlineto
            -459 hlineto
            -13 -67 181 callgsubr
            return
          </CharString>
          <CharString index="85">
            171 -220 rmoveto
            121 78 70 127 26 hvcurveto
            return
          </CharString>
          <CharString index="86">
            109 callgsubr
            62 312 203 callsubr
            -63 -312 rlineto
            78 62 callsubr
            -77 hlineto
            -56 -277 rlineto
            -296 hlineto
            56 277 31 callgsubr
            return
          </CharString>
          <CharString index="87">
            rmoveto
            hintmask 01010000
            70 26 45 51 68 vvcurveto
            32 -17 21 -25 vhcurveto
            hintmask 01100000
            -26 -23 -16 -32 -23 17 -14 20 20 callgsubr
            hintmask 10010000
            -6 -36 -28 -24 -42 -17 rrcurveto
            endchar
          </CharString>
          <CharString index="88">
            rmoveto
            44 20 rlineto
            -21 48 -8 69 54 vvcurveto
            117 41 105 89 110 vhcurveto
            -38 22 rlineto
            -104 -121 -45 -97 -135 vvcurveto
            -71 16 -66 26 -55 vhcurveto
            endchar
          </CharString>
          <CharString index="89">
            vstem
            -10 callsubr
            return
          </CharString>
          <CharString index="90">
            97 37 34 -21 -51 return
          </CharString>
          <CharString index="91">
            -114 55 -62 85 return
          </CharString>
          <CharString index="92">
            50 -86 64 256 57 232 63 hstemhm
            327 76 -37 78 hintmask 11110000
            174 -86 rmoveto
            132 97 80 123 69 -42 48 -65 24 hvcurveto
            4 vlineto
            hintmask 11101000
            93 28 55 67 83 vvcurveto
            87 -60 59 -106 -62 -61 -22 -41 -54 vhcurveto
            40 -51 rlineto
            31 37 48 20 39 hhcurveto
            67 34 -40 -57 -62 -52 -73 -157 hvcurveto
            -12 -57 rlineto
            hintmask 11110000
            133 49 -50 -68 -78 -64 -60 -92 -65 -47 42 44 -30 hvcurveto
            -51 -40 rlineto
            -59 41 69 -51 86 hhcurveto
            endchar
          </CharString>
          <CharString index="93">
            189 callsubr
            hstem
            79 78 517 66 vstem
            -88 callsubr
            return
          </CharString>
          <CharString index="94">
            rmoveto
            43 37 -122 140 -55 -50 rlineto
            endchar
          </CharString>
          <CharString index="95">
            73 -211 54 157 170 callgsubr
            129 65 vstem
            207 124 callsubr
            45 57 74 60 hvcurveto
            94 hlineto
            -100 callsubr
            -131 -656 181 callgsubr
            -52 -34 -44 -55 -53 vvcurveto
            -45 33 -24 45 vhcurveto
            return
          </CharString>
          <CharString index="96">
            373 0 66 128 62 56 134 callsubr
            -59 59 hstemhm
            -33 861 hintmask 11110100
            313 380 rmoveto
            hintmask 11101100
            50 73 49 70 50 74 rrcurveto
            3 hlineto
            -68 -341 rlineto
            -168 hlineto
            -262 -256 rmoveto
            89 hlineto
            131 194 rlineto
            198 hlineto
            -39 -194 rlineto
            359 204 callgsubr
            -282 23 callsubr
            228 204 callgsubr
            -229 hlineto
            hintmask 11110100
            42 213 rlineto
            273 hlineto
            14 65 rlineto
            -402 hlineto
            return
          </CharString>
          <CharString index="97">
            35 hmoveto
            354 hlineto
            13 122 callgsubr
            118 590 31 callgsubr
            return
          </CharString>
          <CharString index="98">
            -36 -25 -22 -32 -33 vvcurveto
            -26 12 -25 19 -14 vhcurveto
            -2 vlineto
            return
          </CharString>
          <CharString index="99">
            131 656 rlineto
            return
          </CharString>
          <CharString index="100">
            72 16 74 59 89 vvcurveto
            95 -77 50 -126 vhcurveto
            -175 hlineto
            21 -282 rmoveto
            44 221 rlineto
            91 hlineto
            99 44 -35 -60 -74 -59 -52 -125 hvcurveto
            -157 -313 rmoveto
            52 256 rlineto
            116 hlineto
            return
          </CharString>
          <CharString index="101">
            117 callsubr
            hstem
            57 80 -70 callgsubr
            return
          </CharString>
          <CharString index="102">
            -58 callsubr
            hintmask 11111000
            -50 callsubr
            hintmask 11101000
            66 callgsubr
          </CharString>
          <CharString index="103">
            50 -5 19 -13 -25 vvcurveto
            -3 -32 -36 -19 -80 -3 rrcurveto
            endchar
          </CharString>
          <CharString index="104">
            -29 23 -16 26 vhcurveto
            endchar
          </CharString>
          <CharString index="105">
            50 -86 63 298 59 174 66 hstem
            331 77 vstem
            168 -86 rmoveto
            125 115 95 152 113 -71 60 -96 -33 -28 -8 -12 -23 hvcurveto
            54 194 rlineto
            232 14 callgsubr
            -300 hlineto
            -81 -306 33 -26 rlineto
            22 41 24 11 42 hhcurveto
            69 46 -44 -83 -104 -75 -67 -84 -74 -39 42 43 -29 hvcurveto
            -50 -40 rlineto
            -61 39 61 -47 88 hhcurveto
            endchar
          </CharString>
          <CharString index="106">
            140 callgsubr
            85 59 vstem
            179 387 rmoveto
            41 39 21 34 32 20 callgsubr
            -6 -47 rlineto
            47 hlineto
            63 321 rlineto
            -45 hlineto
            -14 -39 1 callsubr
            32 -16 -27 15 -31 hhcurveto
            -91 -86 -97 -122 -77 38 -41 56 hvcurveto
            19 48 rmoveto
            -31 -23 24 53 86 60 78 60 22 21 -12 -33 18 hvcurveto
            -26 -134 rlineto
            -39 -30 -39 -23 -32 hhcurveto
            endchar
          </CharString>
          <CharString index="107">
            rmoveto
            49 7 48 20 8 50 10 46 -40 24 -78 3 -13 -41 rcurveline
            49 -2 19 -11 -5 -27 -4 -21 -21 -9 -26 -6 rrcurveto
            return
          </CharString>
          <CharString index="108">
            rlineto
            -4 hlineto
            return
          </CharString>
          <CharString index="109">
            287 -12 rmoveto
            188 131 205 201 90 -24 74 -46 48 hvcurveto
            return
          </CharString>
          <CharString index="110">
            47 -224 53 325 52 220 60 -44 56 return
          </CharString>
          <CharString index="111">
            61 47 27 38 hhcurveto
            50 return
          </CharString>
          <CharString index="112">
            18 -209 62 633 15 callgsubr
            return
          </CharString>
          <CharString index="113">
            vstem
            12 callgsubr
            return
          </CharString>
          <CharString index="114">
            50 95 61 334 84 0 -20 hstemhm
            -9 447 hintmask 10110000
            85 156 rmoveto
            189 229 rlineto
            hintmask 11010000
            25 32 25 36 27 37 rrcurveto
            4 hlineto
            -10 -44 -13 -46 -7 -37 -42 -207 rcurveline
            -46 -230 rmoveto
            72 hlineto
            34 169 rlineto
            82 hlineto
            12 61 rlineto
            -82 hlineto
            83 418 rlineto
            -84 hlineto
            -353 -428 -10 -51 rlineto
            280 hlineto
            endchar
          </CharString>
          <CharString index="115">
            80 21 -21 205 134 callgsubr
            return
          </CharString>
          <CharString index="116">
            81 callgsubr
            hstemhm
            35 579 hintmask 01011000
            61 callgsubr
            hintmask 01101000
            -69 callgsubr
            hintmask 10011000
            -29 callsubr
            return
          </CharString>
          <CharString index="117">
            -95 116 -38 -31 rlineto
            endchar
          </CharString>
          <CharString index="118">
            1 callgsubr
            56 rlineto
            13 -25 -26 82 callsubr
            return
          </CharString>
          <CharString index="119">
            186 -12 115 callgsubr
            return
          </CharString>
          <CharString index="120">
            -136 -87 -110 return
          </CharString>
          <CharString index="121">
            rlineto
            -254 hlineto
            return
          </CharString>
          <CharString index="122">
            43 132 callsubr
            hintmask 11111010
            43 callgsubr
            hintmask 11110110
            -41 -15 49 -63 hhcurveto
            -55 -29 -40 -51 -11 hvcurveto
            43 -5 rlineto
            29 10 13 17 24 hhcurveto
            hintmask 11111010
            41 14 -50 63 hhcurveto
            endchar
          </CharString>
          <CharString index="123">
            -39 -21 42 -58 hhcurveto
            -47 -28 -37 -52 -14 hvcurveto
            42 -4 rlineto
            29 11 10 13 20 hhcurveto
            return
          </CharString>
          <CharString index="124">
            -127 -286 -21 -46 -16 -45 -19 -45 rlinecurve
            -4 hlineto
            -2 45 -1 45 -2 46 rrcurveto
            return
          </CharString>
          <CharString index="125">
            rmoveto
            108 58 77 74 18 hvcurveto
            return
          </CharString>
          <CharString index="126">
            -21 486 -20 return
          </CharString>
          <CharString index="127">
            -4 hlineto
            -42 137 -150 420 31 callgsubr
            return
          </CharString>
          <CharString index="128">
            73 0 49 callgsubr
            return
          </CharString>
          <CharString index="129">
            69 344 rlineto
            61 return
          </CharString>
          <CharString index="130">
            hlineto
            51 246 rlineto
            return
          </CharString>
          <CharString index="131">
            hintmask 10111111
            -60 callgsubr
            hintmask 01111111
            83 callgsubr
            hintmask 10111111
            -104 callgsubr
            vhcurveto
            return
          </CharString>
          <CharString index="132">
            -12 rmoveto
            126 114 96 152 111 -71 57 -96 -33 -28 -9 -11 -23 hvcurveto
            52 188 rlineto
            233 204 callgsubr
            -299 hlineto
            -80 -301 33 -26 rlineto
            23 42 24 10 41 hhcurveto
            69 46 -40 -82 -103 -75 -67 -83 -75 -39 41 44 -29 hvcurveto
            -50 -41 rlineto
            -60 39 62 -48 87 hhcurveto
            endchar
          </CharString>
          <CharString index="133">
            218 105 rmoveto
            47 26 38 51 14 hvcurveto
            -43 4 rlineto
            -29 -10 -10 -13 -19 hhcurveto
            return
          </CharString>
          <CharString index="134">
            -44 -217 rlineto
            return
          </CharString>
          <CharString index="135">
            33 callsubr
            rlineto
            return
          </CharString>
          <CharString index="136">
            60 hlineto
            77 390 rlineto
            -47 hlineto
            return
          </CharString>
          <CharString index="137">
            55 61 31 38 42 return
          </CharString>
          <CharString index="138">
            70 15 52 45 75 vvcurveto
            19 -3 17 -8 21 vhcurveto
            -63 -22 rlineto
            return
          </CharString>
          <CharString index="139">
            -32 -21 -26 -10 -52 -8 rrcurveto
            return
          </CharString>
          <CharString index="140">
            15 73 rlineto
            57 11 31 36 47 hhcurveto
            26 18 -8 -9 16 hvcurveto
            27 56 rlineto
            13 -27 -27 10 -39 hhcurveto
            -84 -55 -59 -98 -21 hvcurveto
            -14 -71 -65 -5 return
          </CharString>
          <CharString index="141">
            -49 -217 rmoveto
            84 41 63 93 19 hvcurveto
            111 547 -15 callgsubr
            -111 -548 59 callgsubr
            return
          </CharString>
          <CharString index="142">
            hmoveto
            35 176 rlineto
            83 129 callsubr
            -83 hlineto
            80 400 rlineto
            -84 hlineto
            -350 -410 -9 -52 rlineto
            279 hlineto
            -35 -176 rlineto
            -150 238 rmoveto
            182 212 rlineto
            hintmask 11101000
            27 32 26 35 27 37 rrcurveto
            4 hlineto
            -10 -44 -13 -45 -8 -38 -38 -189 rcurveline
            endchar
          </CharString>
          <CharString index="143">
            rmoveto
            104 120 45 97 136 vvcurveto
            70 -17 67 -26 55 vhcurveto
            -43 -21 rlineto
            21 -48 8 -69 -54 vvcurveto
            -117 -41 -105 -90 -110 vhcurveto
            endchar
          </CharString>
          <CharString index="144">
            vstem
            200 -12 rmoveto
            142 120 204 239 124 -56 95 -100 -142 -122 -207 -238 -125 57 -92 101 hvcurveto
            return
          </CharString>
          <CharString index="145">
            hlineto
            17 83 rlineto
            57 11 1 callgsubr
            return
          </CharString>
          <CharString index="146">
            -47 -22 -48 -43 -56 vvcurveto
            -61 51 -42 70 vhcurveto
            return
          </CharString>
          <CharString index="147">
            rmoveto
            147 125 204 239 122 -59 97 -107 -147 -127 -207 -238 -122 59 -95 109 hvcurveto
            4 61 rmoveto
            -69 -31 65 88 180 88 206 109 68 32 -65 -89 -181 -89 -204 -108 hvcurveto
            endchar
          </CharString>
          <CharString index="148">
            -68 callsubr
            -76 hlineto
            return
          </CharString>
          <CharString index="149">
            rmoveto
            130 131 -50 36 -119 -142 rlineto
            199 -25 rmoveto
            130 131 -50 36 -119 -142 rlineto
            endchar
          </CharString>
          <CharString index="150">
            20 61 rlineto
            3 hlineto
            -44 23 42 -29 52 hhcurveto
            -3 64 rmoveto
            -38 -34 21 51 -27 hvcurveto
            return
          </CharString>
          <CharString index="151">
            vstem
            33 -206 -34 callsubr
            42 32 40 56 36 hvcurveto
            27 callgsubr
            -97 -486 rlineto
            18 hlineto
            -37 -26 -54 -55 -58 161 callgsubr
            return
          </CharString>
          <CharString index="152">
            12 112 rlineto
            4 hlineto
            38 -204 rlineto
            34 hlineto
            118 204 rlineto
            4 hlineto
            -31 -112 -28 -140 rlineto
            54 hlineto
            62 310 rlineto
            -70 hlineto
            -70 -115 -41 -81 1 callsubr
            -11 81 -22 115 rlineto
            -69 hlineto
            endchar
          </CharString>
          <CharString index="153">
            -63 callgsubr
            -49 -53 -30 -51 hhcurveto
            return
          </CharString>
          <CharString index="154">
            55 53 3 hvcurveto
            -49 -8 rlineto
            -74 -7 return
          </CharString>
          <CharString index="155">
            79 -79 112.5 return
          </CharString>
          <CharString index="156">
            543 186 -86 86 hstemhm
            95 92 hintmask 10100000
            79 543 rmoveto
            hintmask 01100000
            77 27 31 48 55 vvcurveto
            32 -17 24 -26 -27 -22 -17 -31 -22 18 -16 19 3 3 0 1 4 vhcurveto
            -9 -30 -20 -22 -44 -17 rrcurveto
            endchar
          </CharString>
          <CharString index="157">
            21 callgsubr
            hintmask 10100000
            32 callsubr
            hintmask 01100000
            101 callsubr
            endchar
          </CharString>
          <CharString index="158">
            188 callgsubr
            62 callgsubr
            return
          </CharString>
          <CharString index="159">
            -346 -12 684 hstem
            -211 536 vstem
            -211 107 callsubr
            endchar
          </CharString>
          <CharString index="160">
            hstemhm
            -15 68 18 66 -58 71 172 76 -44 68 return
          </CharString>
          <CharString index="161">
            76 hlineto
            27 callgsubr
            return
          </CharString>
          <CharString index="162">
            23 callgsubr
            62 hlineto
            -103 callgsubr
            return
          </CharString>
          <CharString index="163">
            -29 23 -16 26 hvcurveto
            endchar
          </CharString>
          <CharString index="164">
            vstem
            159 -12 rmoveto
            114 67 83 113 22 hvcurveto
            94 472 31 callgsubr
            -92 -461 rlineto
            -87 -17 -42 -53 -66 hhcurveto
            -55 -38 29 48 -19 hvcurveto
            -51 -43 rlineto
            -61 28 55 -40 78 hhcurveto
            return
          </CharString>
          <CharString index="165">
            143 60 callgsubr
            return
          </CharString>
          <CharString index="166">
            hvcurveto
            -46 8 rlineto
            -49 -18 -39 -39 -58 hhcurveto
            -59 return
          </CharString>
          <CharString index="167">
            31 hmoveto
            69 callsubr
            return
          </CharString>
          <CharString index="168">
            -10 -3 -13 130 callgsubr
            24 return
          </CharString>
          <CharString index="169">
            hlineto
            -8 callsubr
            return
          </CharString>
          <CharString index="170">
            43 callsubr
            46 231 87 callgsubr
            return
          </CharString>
          <CharString index="171">
            -212 103 -82 -21 return
          </CharString>
          <CharString index="172">
            rmoveto
            39 hlineto
            44 155 11 57 rlineto
            -54 hlineto
            endchar
          </CharString>
          <CharString index="173">
            35 hmoveto
            210 hlineto
            156 117 64 146 75 -53 42 -68 16 hvcurveto
            1 4 rlineto
            return
          </CharString>
          <CharString index="174">
            -80 -42 -53 -43 -49 hhcurveto
            -17 -14 3 5 -10 hvcurveto
            -27 -68 rlineto
            -6 14 14 -3 18 hhcurveto
            return
          </CharString>
          <CharString index="175">
            vstem
            60 callsubr
            return
          </CharString>
          <CharString index="176">
            76 hlineto
            143 144 callgsubr
            return
          </CharString>
          <CharString index="177">
            -12 22 22 -7 31 hhcurveto
            return
          </CharString>
          <CharString index="178">
            -42 callsubr
            57 278 152 callsubr
            -36 -134 return
          </CharString>
          <CharString index="179">
            rlineto
            148 78 71 100 104 vvcurveto
            98 -69 54 -96 -89 -71 -43 -44 -49 vhcurveto
            31 -49 rlineto
            39 41 56 34 62 hhcurveto
            68 38 -40 -66 -74 -58 -81 -153 -77 hvcurveto
            return
          </CharString>
          <CharString index="180">
            49.5 -49.5 return
          </CharString>
          <CharString index="181">
            41 45 27 62 33 hvcurveto
            -43 28 rlineto
            -43 -22 -23 -18 -29 hhcurveto
            hintmask 01011000
            131 callgsubr
            return
          </CharString>
          <CharString index="182">
            rmoveto
            23 31 9 14 22 55 callgsubr
            return
          </CharString>
          <CharString index="183">
            21 115 callsubr
            return
          </CharString>
          <CharString index="184">
            99 callsubr
            -116 61 -71 95 -14 vhcurveto
            return
          </CharString>
          <CharString index="185">
            -21 432 66 -12 -20 return
          </CharString>
          <CharString index="186">
            rmoveto
            35 22 -85 161 142 156 -28 29 -156 -148 -11 -62 rlineto
            return
          </CharString>
          <CharString index="187">
            60.5 -50.5 64 return
          </CharString>
          <CharString index="188">
            rmoveto
            54 hlineto
            86 383 19 92 -15 callgsubr
            return
          </CharString>
          <CharString index="189">
            10 -35 hhcurveto
            -82 -52 -59 -98 -20 hvcurveto
            -16 -81 return
          </CharString>
          <CharString index="190">
            hmoveto
            76 hlineto
            85 424 rlineto
            return
          </CharString>
          <CharString index="191">
            -92 -41 53 94 24 3 25 6 30 hvcurveto
            75 375 110 callgsubr
            -368 rlineto
            -6 -33 -4 -32 -28 vvcurveto
            -121 60 -70 110 -14 vhcurveto
            return
          </CharString>
          <CharString index="192">
            49 -58 callgsubr
          </CharString>
          <CharString index="193">
            151 callsubr
            -85 -424 rlineto
            76 hlineto
            86 424 194 callsubr
            return
          </CharString>
          <CharString index="194">
            212 -12 rmoveto
            133 130 131 184 58 -16 47 -28 33 hvcurveto
            return
          </CharString>
          <CharString index="195">
            -21 429 69 -12 -20 23 -20 return
          </CharString>
          <CharString index="196">
            47 20 callgsubr
            return
          </CharString>
          <CharString index="197">
            118 204 rlineto
            4 hlineto
            -32 -112 -28 -140 rlineto
            55 hlineto
            61 310 rlineto
            -69 hlineto
            -71 -115 -40 -81 1 callsubr
            -11 81 return
          </CharString>
          <CharString index="198">
            179 -12 rmoveto
            return
          </CharString>
          <CharString index="199">
            rmoveto
            93 57 59 70 20 59 callsubr
            -25 39 49 1 hvcurveto
            -48 -8 rlineto
            -70 -5 35 -59 92 hhcurveto
            return
          </CharString>
          <CharString index="200">
            571 141 callsubr
            -117 -163 rlineto
            192 -25 141 callsubr
            -118 -163 rlineto
            endchar
          </CharString>
          <CharString index="201">
            rmoveto
            96 25 70 62 71 hhcurveto
            70 24 -53 -55 -19 -2 -15 -3 -16 hvcurveto
            return
          </CharString>
          <CharString index="202">
            57 -1 55 98 56 -27 54 return
          </CharString>
          <CharString index="203">
            -21 278 63 253 62 return
          </CharString>
          <CharString index="204">
            98 28 66 80 98 vvcurveto
            40 -19 26 -35 -39 -25 -31 -33 -30 22 -18 30 vhcurveto
            2 hlineto
            -9 -48 -39 -42 -63 -24 rrcurveto
            endchar
          </CharString>
          <CharString index="205">
            hlineto
            -34 -26 -55 -58 -58 vvcurveto
            -45 32 -24 44 vhcurveto
            return
          </CharString>
          <CharString index="206">
            -85 -65 53 125 18 hvcurveto
            316 hlineto
            6 18 11 38 39 vvcurveto
            100 -41 76 -109 -127 -133 -124 -183 return
          </CharString>
          <CharString index="207">
            -107 387 45 110 39 97 46 hstem
            86 57 172 50 vstem
            return
          </CharString>
          <CharString index="208">
            -8 -39 rlineto
            90 hlineto
            return
          </CharString>
          <CharString index="209">
            -217 rmoveto
            26 30 8 7 16 hvcurveto
            -13 57 rlineto
            -4 -10 -12 -5 -14 120 callsubr
            4 17 hvcurveto
            return
          </CharString>
          <CharString index="210">
            134 128 147 187 return
          </CharString>
          <CharString index="211">
            rmoveto
            86 -1 59 44 72 vvcurveto
            48 -42 36 -64 -5 vhcurveto
            -7 -34 rlineto
            42 19 -18 -29 -47 -30 -31 -56 hvcurveto
            endchar
          </CharString>
          <CharString index="212">
            165 -80 109 -147 -188 -131 -205 -200 return
          </CharString>
          <CharString index="213">
            -19 102 callgsubr
            44 -23 -42 29 -52 hhcurveto
            return
          </CharString>
          <CharString index="214">
            -12 -56 callsubr
            return
          </CharString>
          <CharString index="215">
            -54 -26 -63 -42 -64 vvcurveto
            return
          </CharString>
          <CharString index="216">
            rlineto
            232 hlineto
            return
          </CharString>
          <CharString index="217">
            -76 56 -42 65 return
          </CharString>
          <CharString index="218">
            516 -91 callgsubr
            return
          </CharString>
          <CharString index="219">
            vvcurveto
            102 55 60 73 41 29 -25 -36 22 vhcurveto
            53 41 rlineto
            45 -29 -44 39 -67 hhcurveto
            -119 -86 -85 -136 return
          </CharString>
          <CharString index="220">
            42 -71 callsubr
          </CharString>
          <CharString index="221">
            rmoveto
            52 hlineto
            42 153 19 92 rlineto
            -75 hlineto
            -15 -92 rlineto
            return
          </CharString>
          <CharString index="222">
            -21 656 -20 return
          </CharString>
          <CharString index="223">
            hstem
            69 793 vstem
            69 -60 rmoveto
            793 2 hlineto
            -394 823 1 callsubr
            -395 -823 rlineto
            return
          </CharString>
          <CharString index="224">
            158 -12 141 callgsubr
            return
          </CharString>
          <CharString index="225">
            97 486 rlineto
            -62 hlineto
            return
          </CharString>
          <CharString index="226">
            42 -87 callgsubr
            return
          </CharString>
          <CharString index="227">
            hhcurveto
            -24 -9 13 28 15 1 9 return
          </CharString>
          <CharString index="228">
            -8 -74 rlineto
            63 hlineto
            return
          </CharString>
          <CharString index="229">
            0 150 callgsubr
            return
          </CharString>
          <CharString index="230">
            18 -31 -38 10 -44 hhcurveto
            -188 -131 -205 -200 -166 80 -109 147 hvcurveto
            return
          </CharString>
          <CharString index="231">
            -211 75 callsubr
            return
          </CharString>
          <CharString index="232">
            rlineto
            5 26 3 17 24 vvcurveto
            74 -34 47 -82 -59 -53 -35 -48 -55 vhcurveto
            -4 hlineto
            18 68 return
          </CharString>
          <CharString index="233">
            rlineto
            -59 hlineto
            hintmask 11010000
            -37 -23 -46 -15 return
          </CharString>
          <CharString index="234">
            -26 30 callgsubr
            return
          </CharString>
          <CharString index="235">
            -11 -57 rlineto
            71 hlineto
            return
          </CharString>
          <CharString index="236">
            hlineto
            12 62 rlineto
            return
          </CharString>
          <CharString index="237">
            126 callsubr
            -58 190 callgsubr
            -50 163 callsubr
            return
          </CharString>
          <CharString index="238">
            vstem
            63 -54 rmoveto
            2 hlineto
            823 395 rlineto
            4 vlineto
            -823 394 rlineto
            -2 hlineto
            return
          </CharString>
          <CharString index="239">
            rmoveto
            108 66 rlineto
            4 hlineto
            79 -66 38 25 -77 88 rlineto
            -72 hlineto
            -109 -87 rlineto
            return
          </CharString>
          <CharString index="240">
            rmoveto
            23 19 19 22 22 -17 12 -18 -24 -18 -19 -22 -22 16 -12 19 hvcurveto
            endchar
          </CharString>
          <CharString index="241">
            66 213 65 return
          </CharString>
          <CharString index="242">
            rlineto
            54 hlineto
            132 70 -74 -124 -195 -106 -136 -170 hvcurveto
            endchar
          </CharString>
          <CharString index="243">
            35.5 -35.5 38 return
          </CharString>
          <CharString index="244">
            rmoveto
            51 hlineto
            66 159 33 97 rlineto
            -75 hlineto
            return
          </CharString>
          <CharString index="245">
            49 111 44 161 49 return
          </CharString>
          <CharString index="246">
            rlineto
            70 callsubr
            return
          </CharString>
          <CharString index="247">
            277 0 64 345 77 return
          </CharString>
          <CharString index="248">
            rmoveto
            204 callsubr
            -52 34 return
          </CharString>
          <CharString index="249">
            49 143 41 133 48 return
          </CharString>
          <CharString index="250">
            11 93 rlineto
            -63 hlineto
            return
          </CharString>
          <CharString index="251">
            -215 103 -82 -21 203 19 callgsubr
            hstemhm
            56 78 25 107 return
          </CharString>
          <CharString index="252">
            -33 callsubr
            endchar
          </CharString>
          <CharString index="253">
            rmoveto
            33 27 -83 89 -39 -35 rlineto
            return
          </CharString>
          <CharString index="254">
            -12 61 539 62 hstem
            42 72 return
          </CharString>
          <CharString index="255">
            307 51 -307 hlineto
            return
          </CharString>
          <CharString index="256">
            -106 122 callsubr
            return
          </CharString>
          <CharString index="257">
            -94 1 callsubr
            return
          </CharString>
          <CharString index="258">
            -11 -57 rlineto
            63 hlineto
            return
          </CharString>
          <CharString index="259">
            rlineto
            125 129 callsubr
            -123 hlineto
            27 134 rlineto
            -65 hlineto
            return
          </CharString>
          <CharString index="260">
            -29 51 hhcurveto
            103 callsubr
            113 -55 63 -85 return
          </CharString>
          <CharString index="261">
            3 callgsubr
            32 53 rcurveline
            return
          </CharString>
          <CharString index="262">
            -10 -4 -16 hvcurveto
            -39 -196 rlineto
            57 hlineto
            41 204 rlineto
            3 return
          </CharString>
          <CharString index="263" raw="1">
            b6771d0b   
          </CharString>
          <CharString index="264">
            6 64 rlineto
            -63 hlineto
            103 -434 rmoveto
            -38 -34 20 50 -27 hvcurveto
            return
          </CharString>
          <CharString index="265">
            68 hintmask 11101000
            222 -12 rmoveto
            return
          </CharString>
          <CharString index="266">
            hhcurveto
            70 24 -53 -55 -18 -2 return
          </CharString>
          <CharString index="267">
            -21 424 62 176 62 return
          </CharString>
          <CharString index="268">
            -28 -12 59 391 60 return
          </CharString>
          <CharString index="269">
            83 171 callgsubr
            return
          </CharString>
          <CharString index="270">
            rlineto
            114 hlineto
            return
          </CharString>
          <CharString index="271">
            8 callsubr
            112 47 hstem
            -53 return
          </CharString>
          <CharString index="272">
            -54 callsubr
            110 callsubr
            vhcurveto
            return
          </CharString>
          <CharString index="273">
            -4 -21 -23 -12 -30 -6 rrcurveto
            endchar
          </CharString>
          <CharString index="274">
            61 256 57 221 61 hstemhm
            442 76 -53 79 return
          </CharString>
          <CharString index="275">
            258 18 callgsubr
            return
          </CharString>
          <CharString index="276">
            -263 rmoveto
            67 hlineto
            30 196 rlineto
            -52 hlineto
            endchar
          </CharString>
          <CharString index="277">
            hstemhm
            39 77 281 78 14 64 return
          </CharString>
          <CharString index="278">
            -206 51 143 return
          </CharString>
          <CharString index="279">
            59 187 59 return
          </CharString>
          <CharString index="280">
            31 -29 hvcurveto
            -43 -45 rlineto
            -40 33 55 -39 92 hhcurveto
            return
          </CharString>
          <CharString index="281">
            52 158 61 hstemhm
            37 74 5 61 205 65 return
          </CharString>
          <CharString index="282">
            410 58 -410 hlineto
            endchar
          </CharString>
          <CharString index="283">
            5 7 callgsubr
            return
          </CharString>
          <CharString index="284">
            31 76 callsubr
            return
          </CharString>
          <CharString index="285">
            410 57 -410 hlineto
            return
          </CharString>
          <CharString index="286">
            47 27 51 -1 50 hstemhm
            return
          </CharString>
          <CharString index="287">
            hvcurveto
            57 284 return
          </CharString>
          <CharString index="288">
            38 32 12 10 return
          </CharString>
          <CharString index="289">
            367 -12 66 hstem
            52 78 209 76 vstem
            return
          </CharString>
          <CharString index="290">
            656 39 20 50 -8 50 hstemhm
            5 287 return
          </CharString>
          <CharString index="291">
            11 52 24 12 59 11 54 -44 28 -74 3 return
          </CharString>
          <CharString index="292">
            -47 -28 -40 -51 -50 vvcurveto
            -44 31 -23 44 vhcurveto
            return
          </CharString>
          <CharString index="293">
            29 28 -22 22 -29 -29 -22 -22 -28 -29 22 return
          </CharString>
          <CharString index="294">
            -250 1000 hstem
            95 52 return
          </CharString>
          <CharString index="295">
            vstem
            162 callsubr
            return
          </CharString>
          <CharString index="296">
            199 -12 115 callgsubr
            return
          </CharString>
          <CharString index="297">
            113 136 75 return
          </CharString>
          <CharString index="298">
            -44 32 -23 43 vhcurveto
            return
          </CharString>
          <CharString index="299">
            64 -43 -21 29 -21 return
          </CharString>
          <CharString index="300">
            -60 31 -48 85 return
          </CharString>
          <CharString index="301">
            rlineto
            191 hlineto
            return
          </CharString>
          <CharString index="302">
            5 8 -13 hvcurveto
            return
          </CharString>
          <CharString index="303">
            163 -27 554 hstem
            265 63 vstem
            return
          </CharString>
          <CharString index="304">
            44.5 -44.5 return
          </CharString>
          <CharString index="305">
            -192 -217 63 -42 -21 703 -20 return
          </CharString>
          <CharString index="306">
            97 53 -45 -66 -102 -79 -43 -125 hvcurveto
            return
          </CharString>
          <CharString index="307">
            -152 45 360 50 360 45 hstemhm
            return
          </CharString>
          <CharString index="308">
            120 21 -21 264 63 267 62 return
          </CharString>
          <CharString index="309">
            50 10 3 201 -74 -14 rlineto
            endchar
          </CharString>
          <CharString index="310">
            rlineto
            296 hlineto
            return
          </CharString>
          <CharString index="311">
            128 154 return
          </CharString>
          <CharString index="312">
            412 vstem
            120 hmoveto
            80 hlineto
            return
          </CharString>
          <CharString index="313">
            10 36 25 6 35 15 52 hvcurveto
            return
          </CharString>
          <CharString index="314">
            rlineto
            -139 hlineto
            endchar
          </CharString>
          <CharString index="315">
            153 770 rlineto
            return
          </CharString>
          <CharString index="316">
            -245 rmoveto
            48 hlineto
            return
          </CharString>
          <CharString index="317">
            -25 -2 -18 -21 vvcurveto
            return
          </CharString>
          <CharString index="318">
            579 198 hstem
            return
          </CharString>
          <CharString index="319">
            rlineto
            110 hlineto
            return
          </CharString>
          <CharString index="320">
            hvcurveto
            hintmask 1011111110000000
            return
          </CharString>
          <CharString index="321">
            67 368 hstem
            return
          </CharString>
          <CharString index="322">
            hlineto
            28 140 rlineto
            return
          </CharString>
          <CharString index="323">
            -29 -58 -56 -60 vvcurveto
            return
          </CharString>
          <CharString index="324">
            rlineto
            174 hlineto
            return
          </CharString>
          <CharString index="325">
            47 50 41 hstem
            return
          </CharString>
          <CharString index="326">
            hlineto
            11 45 rlineto
            return
          </CharString>
          <CharString index="327">
            hlineto
            11 52 rlineto
            return
          </CharString>
          <CharString index="328">
            rlineto
            112 hlineto
            return
          </CharString>
          <CharString index="329">
            rmoveto
            92 53 50 56 18 hvcurveto
            -45 8 rlineto
            -36 -14 -35 -33 -61 hhcurveto
            -61 -23 33 36 -1 hvcurveto
            -46 -8 rlineto
            -56 -4 34 -50 93 hhcurveto
            return
          </CharString>
          <CharString index="330">
            -12 64 292 60 168 66 hstem
            return
          </CharString>
          <CharString index="331">
            rmoveto
            47 17 -65 159 -62 -27 rlineto
            return
          </CharString>
          <CharString index="332">
            67 171 62 hstem
            393 78 vstem
            return
          </CharString>
          <CharString index="333">
            hintmask 1111111010000000
            return
          </CharString>
          <CharString index="334">
            hlineto
            -9 -45 rlineto
            return
          </CharString>
          <CharString index="335">
            50 21 -21 return
          </CharString>
        <CharString name=".notdef">
          198 0 56 548 56 hstem
          36 586 vstem
          36 hmoveto
          456 hlineto
          130 660 rlineto
          -456 hlineto
          172 -276 rmoveto
          -28 93 -40 127 rlineto
          229 hlineto
          -90 -127 -67 -93 rlineto
          -192 -328 rmoveto
          99 136 71 101 rlineto
          4 hlineto
          31 -101 44 -136 rlineto
          -279 49 rmoveto
          94 470 75 -235 rlineto
          161 -235 rmoveto
          -75 235 171 235 rlineto
          endchar
        </CharString>
        <CharString name="A">
          8 callsubr
          hstem
          -53 522 vstem
          227 377 -105 callsubr
          endchar
        </CharString>
        <CharString name="AE">
          -11 callsubr
          endchar
        </CharString>
        <CharString name="Aacute">
          8 callsubr
          hstem
          -53 552 vstem
          227 377 -105 callsubr
          24 47 -78 callsubr
        </CharString>
        <CharString name="Abreve">
          8 callsubr
          49 53 hstem
          235 52 vstem
          227 377 -105 callsubr
          54 85 callsubr
        </CharString>
        <CharString name="Acircumflex">
          8 callsubr
          136 45 hstem
          -53 559 vstem
          227 377 -105 callsubr
          -59 113 callsubr
        </CharString>
        <CharString name="Adieresis">
          8 callsubr
          59 95 hstem
          230 91 95 90 vstem
          227 377 -105 callsubr
          -33 8 callgsubr
        </CharString>
        <CharString name="Agrave">
          8 callsubr
          hstem
          -53 522 vstem
          227 377 -105 callsubr
          74 37 -13 callsubr
        </CharString>
        <CharString name="Amacron">
          8 callsubr
          73 54 hstem
          -53 554 vstem
          227 377 -105 callsubr
          -69 73 -29 callgsubr
          endchar
        </CharString>
        <CharString name="Aogonek">
          80 -211 54 178 -21 205 134 callgsubr
          hstem
          306 65 6 callsubr
          215 -476 75 callsubr
          39 34 44 64 36 hvcurveto
          -76 656 rlineto
          -90 hlineto
          -356 -656 rlineto
          86 hlineto
          105 205 109 callsubr
          18 -205 rlineto
          13 hlineto
          -43 -30 -52 -55 -57 vvcurveto
          -45 33 -24 45 vhcurveto
          endchar
        </CharString>
        <CharString name="Aogonek.d">
          80 -211 54 362 134 callgsubr
          hstem
          124 65 vstem
          202 -211 rmoveto
          23 53 callgsubr
          34 26 41 45 29 hvcurveto
          -24 29 rlineto
          -63 -39 -49 -62 -55 vvcurveto
          -45 32 -24 46 vhcurveto
          25 588 -105 callsubr
          endchar
        </CharString>
        <CharString name="Aring">
          8 callsubr
          44 36 106 36 hstem
          276 46 101 46 vstem
          227 377 -105 callsubr
          62 80 rmoveto
          -27 -16 18 28 33 27 27 31 28 15 -19 -28 -33 -27 -26 -31 hvcurveto
          -2 -36 rmoveto
          60 46 43 56 53 -41 26 -46 -59 -47 -45 -54 -54 41 -25 46 hvcurveto
          endchar
        </CharString>
        <CharString name="Atilde">
          8 callsubr
          53 172 callgsubr
          -53 608 hintmask 11110100
          227 377 -105 callsubr
          129 53 -58 callsubr
          hintmask 11111100
          -50 callsubr
          hintmask 11110100
          66 callgsubr
        </CharString>
        <CharString name="B">
          153 0 167 callsubr
          hintmask 11110000
          66 callsubr
          hintmask 11101000
          -7 callsubr
          hintmask 11110000
          199 callsubr
          endchar
        </CharString>
        <CharString name="C">
          16 callgsubr
          endchar
        </CharString>
        <CharString name="Cacute">
          16 callgsubr
          91 715 -78 callsubr
        </CharString>
        <CharString name="Ccaron">
          189 callgsubr
          38 45 hstem
          57 80 36 callgsubr
          83 718 -77 callsubr
        </CharString>
        <CharString name="Ccedilla">
          120 -226 39 179 63 -42 -21 609 67 hstemhm
          57 80 124 63 hintmask 10111100
          144 -226 rmoveto
          3 callgsubr
          rrcurveto
          hintmask 11011100
          32 53 76 2 58 33 47 41 rlinecurve
          -66 callgsubr
          -140 66 -102 122 -19 hvcurveto
          -53 -82 rlineto
          -4 callsubr
        </CharString>
        <CharString name="Ccircumflex">
          189 callgsubr
          124 45 hstem
          57 80 36 callgsubr
          8 710 -71 callsubr
        </CharString>
        <CharString name="Cdotaccent">
          189 callgsubr
          48 103 hstem
          57 80 233 107 36 callgsubr
          129 728 -100 callgsubr
          -26 -32 56 callsubr
        </CharString>
        <CharString name="D">
          162 0 64 529 63 hstem
          487 -59 callgsubr
          endchar
        </CharString>
        <CharString name="Dcaron">
          162 0 64 529 63 50 45 hstem
          487 -59 callgsubr
          132 642 -77 callsubr
        </CharString>
        <CharString name="Dcroat">
          -14 callgsubr
        </CharString>
        <CharString name="Delta">
          135 122 callsubr
          hstem
          -19 508 vstem
          -19 hmoveto
          499 hlineto
          9 45 -77 611 rlineto
          -90 hlineto
          -332 -611 rlineto
          255 332 rmoveto
          37 72 34 66 35 76 rrcurveto
          4 hlineto
          5 -75 7 -70 5 -69 34 -311 rcurveline
          -327 hlineto
          endchar
        </CharString>
        <CharString name="E">
          -11 callgsubr
          endchar
        </CharString>
        <CharString name="Eacute">
          -11 callgsubr
          168 47 -78 callsubr
        </CharString>
        <CharString name="Ebreve">
          21 callsubr
          49 53 hstem
          242 52 -86 callgsubr
          198 85 callsubr
        </CharString>
        <CharString name="Ecaron">
          21 callsubr
          50 45 hstem
          35 502 -86 callgsubr
          160 50 -77 callsubr
        </CharString>
        <CharString name="Ecircumflex">
          21 callsubr
          136 45 hstem
          35 493 -86 callgsubr
          85 113 callsubr
        </CharString>
        <CharString name="Edieresis">
          21 callsubr
          59 95 hstem
          237 91 95 90 -86 callgsubr
          111 8 callgsubr
        </CharString>
        <CharString name="Edotaccent">
          21 callsubr
          60 103 hstem
          323 107 -86 callgsubr
          206 60 -100 callgsubr
          -26 -32 56 callsubr
        </CharString>
        <CharString name="Egrave">
          -11 callgsubr
          218 37 -13 callsubr
        </CharString>
        <CharString name="Emacron">
          44 callgsubr
          75 73 -29 callgsubr
          endchar
        </CharString>
        <CharString name="Eogonek">
          73 -211 54 157 170 callgsubr
          228 65 vstem
          306 -211 rmoveto
          24 30 9 14 22 hvcurveto
          -17 42 rlineto
          -8 -13 -10 -3 -12 173 callgsubr
          24 42 51 70 61 7 hvcurveto
          -100 callsubr
          -131 -656 rlineto
          287 hlineto
          -38 -26 187 callgsubr
        </CharString>
        <CharString name="Eogonek.d">
          -12 callsubr
          endchar
        </CharString>
        <CharString name="Eth">
          -14 callgsubr
        </CharString>
        <CharString name="Euro">
          50 -12 64 188 42 -42 45 70 41.5 -41.5 44 191 63 hstemhm
          82 77 -75 77 hintmask 10101110
          271 -12 rmoveto
          66 56 28 46 49 hvcurveto
          -38 47 rlineto
          -32 -33 -39 -25 -47 hhcurveto
          -77 -48 66 122 -1 hvcurveto
          202 213 callgsubr
          hintmask 10101101
          -210 hlineto
          2 24 3 24 5 22 rrcurveto
          252 hlineto
          9 44 rlineto
          -250 hlineto
          112 35 70 79 83 hhcurveto
          47 25 -29 -41 20 hvcurveto
          58 37 rlineto
          53 -28 -42 43 -73 hhcurveto
          hintmask 10110101
          -119 -108 -102 -153 -45 hvcurveto
          -53 -3 rlineto
          hintmask 11001101
          -9 -40 rlineto
          51 hlineto
          -5 -23 -3 -23 -2 -25 rrcurveto
          hintmask 11001110
          -54 -4 rlineto
          hintmask 10101110
          -10 -40 rlineto
          62 hlineto
          -164 1 73 -88 115 hhcurveto
          endchar
        </CharString>
        <CharString name="F">
          229 callgsubr
          hstem
          35 493 109 callgsubr
          60 297 rlineto
          240 204 callgsubr
          -241 hlineto
          45 228 rlineto
          285 113 callgsubr
          -362 hlineto
          endchar
        </CharString>
        <CharString name="G">
          -6 callsubr
          endchar
        </CharString>
        <CharString name="Gbreve">
          117 callsubr
          37 53 hstem
          57 80 152 52 -70 callgsubr
          111 717 -58 callgsubr
        </CharString>
        <CharString name="Gcaron">
          117 callsubr
          38 45 hstem
          57 80 -70 callgsubr
          73 718 -77 callsubr
        </CharString>
        <CharString name="Gcircumflex">
          117 callsubr
          124 45 hstem
          57 80 -70 callgsubr
          -2 710 -71 callsubr
        </CharString>
        <CharString name="Gdotaccent">
          117 callsubr
          48 103 hstem
          57 80 233 107 -70 callgsubr
          119 728 -100 callgsubr
          -26 -32 56 callsubr
        </CharString>
        <CharString name="H">
          192 21 51 callsubr
          endchar
        </CharString>
        <CharString name="Hbar">
          224 21 -21 312 67 110 73 callsubr
          51 -51 167 hstemhm
          50 633 hintmask 11010100
          50 hmoveto
          78 hlineto
          62 312 203 callsubr
          -63 -312 rlineto
          78 hlineto
          98 489 rlineto
          73 hlineto
          11 51 rlineto
          -74 hlineto
          hintmask 11001100
          23 116 -15 callgsubr
          hintmask 11010100
          -23 -116 rlineto
          -296 hlineto
          hintmask 11001100
          23 116 31 callgsubr
          hintmask 11100100
          -23 -116 -73 -3 rlineto
          hintmask 11010100
          -10 -48 rlineto
          73 hlineto
          55 -110 rmoveto
          22 110 203 callsubr
          -22 -110 rlineto
          endchar
        </CharString>
        <CharString name="Hcircumflex">
          192 21 188 callgsubr
          156 45 62 callgsubr
          120 113 callsubr
        </CharString>
        <CharString name="I">
          70 callgsubr
          hstem
          35 209 -13 callgsubr
          endchar
        </CharString>
        <CharString name="I.a">
          149 callsubr
          hstem
          -7 370 -75 callsubr
          endchar
        </CharString>
        <CharString name="Iacute">
          70 callgsubr
          hstem
          35 326 -13 callgsubr
          23 47 -78 callsubr
        </CharString>
        <CharString name="Iacute.a">
          149 callsubr
          hstem
          -7 404 -75 callsubr
          218 637 -78 callsubr
        </CharString>
        <CharString name="Icircumflex">
          70 callgsubr
          156 45 hstem
          35 333 -13 callgsubr
          -60 113 callsubr
        </CharString>
        <CharString name="Icircumflex.a">
          149 callsubr
          137 45 hstem
          -7 411 -75 callsubr
          135 633 -71 callsubr
        </CharString>
        <CharString name="Idieresis">
          70 callgsubr
          79 95 hstem
          92 91 95 90 -13 callgsubr
          -34 8 callgsubr
        </CharString>
        <CharString name="Idieresis.a">
          149 callsubr
          59 95 hstem
          128 91 95 90 -75 callsubr
          161 649 -76 callgsubr
        </CharString>
        <CharString name="Idotaccent">
          70 callgsubr
          80 103 hstem
          178 107 -13 callgsubr
          61 60 -100 callgsubr
          -26 -32 56 callsubr
        </CharString>
        <CharString name="Idotaccent.a">
          149 callsubr
          60 103 hstem
          214 107 -75 callsubr
          256 650 -100 callgsubr
          -26 -32 56 callsubr
        </CharString>
        <CharString name="Igrave">
          70 callgsubr
          hstem
          35 247 -13 callgsubr
          73 37 -13 callsubr
        </CharString>
        <CharString name="Igrave.a">
          149 callsubr
          hstem
          -7 370 -75 callsubr
          268 627 -13 callsubr
        </CharString>
        <CharString name="Imacron">
          70 callgsubr
          93 54 hstem
          35 328 -13 callgsubr
          -70 73 -29 callgsubr
          endchar
        </CharString>
        <CharString name="Imacron.a">
          149 callsubr
          73 54 hstem
          -7 406 -75 callsubr
          125 663 -29 callgsubr
          endchar
        </CharString>
        <CharString name="Iogonek">
          -178 -211 54 178 115 callsubr
          hstem
          -39 65 vstem
          37 -211 rmoveto
          25 53 callgsubr
          39 36 49 51 31 hvcurveto
          32 callgsubr
          -131 -656 rlineto
          15 98 callsubr
          endchar
        </CharString>
        <CharString name="Iogonek.a">
          -106 -211 54 157 150 callgsubr
          hstem
          -1 64 vstem
          75 -211 rmoveto
          22 34 10 15 22 hvcurveto
          -18 40 rlineto
          -8 -12 -10 -3 -13 173 callgsubr
          24 39 37 49 50 31 hvcurveto
          80 -81 callsubr
          -14 -66 rlineto
          95 98 callsubr
          endchar
        </CharString>
        <CharString name="Itilde">
          70 callgsubr
          73 172 callgsubr
          35 382 hintmask 11101000
          35 hmoveto
          78 hlineto
          32 callgsubr
          128 53 -5 callsubr
        </CharString>
        <CharString name="Itilde.a">
          149 callsubr
          53 172 callgsubr
          -7 460 hintmask 11101000
          -78 callgsubr
          323 643 -5 callsubr
        </CharString>
        <CharString name="J">
          26 -12 115 callgsubr
          hstem
          -2 458 57 callsubr
          endchar
        </CharString>
        <CharString name="Jcircumflex">
          26 -12 115 callgsubr
          156 45 hstem
          -2 583 57 callsubr
          160 710 -71 callsubr
        </CharString>
        <CharString name="K">
          129 76 callsubr
          hstem
          35 564 0 callgsubr
          endchar
        </CharString>
        <CharString name="L">
          32 0 192 callgsubr
          35 367 -18 callsubr
          endchar
        </CharString>
        <CharString name="Lacute">
          32 0 192 callgsubr
          35 367 -18 callsubr
          31 47 -78 callsubr
        </CharString>
        <CharString name="Lcaron">
          32 0 192 callgsubr
          35 429 -18 callsubr
          204 -144 65 callsubr
        </CharString>
        <CharString name="Ldot">
          32 0 66 202 120 268 -20 hstemhm
          35 397 -113 113 hintmask 11110000
          -10 callsubr
          hintmask 11101000
          200 -388 rmoveto
          -57 callgsubr
          endchar
        </CharString>
        <CharString name="Lslash">
          32 0 192 callgsubr
          -9 411 vstem
          35 hmoveto
          354 hlineto
          13 122 callgsubr
          42 211 215 103 -21 53 -180 -89 62 312 31 callgsubr
          -70 -351 -105 -50 20 -53 71 35 rlineto
          endchar
        </CharString>
        <CharString name="M">
          275 21 -21 69 97 397 93 hstem
          35 665 -67 callsubr
          endchar
        </CharString>
        <CharString name="N">
          9 callsubr
          endchar
        </CharString>
        <CharString name="Nacute">
          9 callsubr
          208 47 -78 callsubr
        </CharString>
        <CharString name="Ncaron">
          81 callgsubr
          70 45 hstemhm
          35 579 hintmask 01011100
          61 callgsubr
          hintmask 01101100
          -69 callgsubr
          hintmask 10011100
          -29 callsubr
          200 50 -77 callsubr
        </CharString>
        <CharString name="Ntilde">
          81 callgsubr
          73 172 callgsubr
          35 579 hintmask 01011010
          61 callgsubr
          hintmask 01101010
          -69 callgsubr
          hintmask 10011010
          -29 callsubr
          313 53 -58 callsubr
          hintmask 01011110
          -50 callsubr
          hintmask 10011010
          66 callgsubr
        </CharString>
        <CharString name="O">
          22 callgsubr
          -97 callgsubr
          endchar
        </CharString>
        <CharString name="OE">
          386 0 64 -64 49 callgsubr
          -63 63 hstemhm
          60 79 hintmask 01110100
          338 hmoveto
          380 hlineto
          14 66 rlineto
          -276 23 callsubr
          221 14 callgsubr
          -223 hlineto
          43 213 rlineto
          265 hlineto
          14 65 rlineto
          -426 hlineto
          -222 -133 -161 -239 -161 96 -95 182 hvcurveto
          hintmask 10101100
          3 64 rmoveto
          -132 -70 73 124 196 106 136 170 hvcurveto
          71 hlineto
          -106 -529 rlineto
          endchar
        </CharString>
        <CharString name="Oacute">
          22 callgsubr
          -97 callgsubr
          90 648 -78 callsubr
        </CharString>
        <CharString name="Ocircumflex">
          22 callgsubr
          124 45 -97 callgsubr
          7 643 -71 callsubr
        </CharString>
        <CharString name="Odieresis">
          22 callgsubr
          47 95 hstemhm
          60 79 145 91 95 90 -33 79 hintmask 11111010
          -106 callsubr
          33 660 -43 callsubr
          hintmask 11111100
          -47 callgsubr
        </CharString>
        <CharString name="Ograve">
          22 callgsubr
          -97 callgsubr
          140 638 -13 callsubr
        </CharString>
        <CharString name="Ohorn">
          -28 callgsubr
          endchar
        </CharString>
        <CharString name="Ohungarumlaut">
          22 callgsubr
          -97 callgsubr
          52 651 42 callsubr
        </CharString>
        <CharString name="Omacron">
          22 callgsubr
          61 54 -97 callgsubr
          -3 674 -29 callgsubr
          endchar
        </CharString>
        <CharString name="Omega">
          228 0 64 537 67 hstem
          66 77 408 81 vstem
          -7 hmoveto
          226 hlineto
          10 51 rlineto
          -49 44 -37 78 100 vvcurveto
          188 110 140 144 98 56 -76 -111 -170 -94 -119 -108 -74 vhcurveto
          -11 -51 rlineto
          227 hlineto
          11 64 rlineto
          -124 hlineto
          2 4 rlineto
          82 68 96 114 176 vvcurveto
          145 -83 97 -140 -194 -149 -164 -224 -94 36 -76 34 -42 vhcurveto
          -4 -131 vlineto
          endchar
        </CharString>
        <CharString name="Oslash">
          22 callgsubr
          hstem
          60 79 388 79 vstem
          37 -30 rmoveto
          84 90 rlineto
          -46 38 56 -26 72 hhcurveto
          188 131 205 201 59 -10 52 -20 43 hvcurveto
          97 104 -36 35 -89 -95 rlineto
          49 -38 -57 27 -74 hhcurveto
          -188 -131 -205 -200 -61 11 -53 21 -43 hvcurveto
          -95 -101 rlineto
          142 264 rmoveto
          154 95 178 141 55 40 -24 -42 25 vhcurveto
          -344 -366 rlineto
          -8 29 -4 34 37 vvcurveto
          152 -214 rmoveto
          -54 -38 23 39 -25 hvcurveto
          342 366 rlineto
          7 -28 4 -32 -36 vvcurveto
          -153 -95 -179 -141 vhcurveto
          endchar
        </CharString>
        <CharString name="Otilde">
          22 callgsubr
          41 172 callgsubr
          60 79 388 79 hintmask 11101100
          -106 callsubr
          195 654 -58 callsubr
          hintmask 11111100
          -50 callsubr
          hintmask 11101100
          66 callgsubr
        </CharString>
        <CharString name="P">
          201 callsubr
          hstem
          480 51 callgsubr
          endchar
        </CharString>
        <CharString name="Q">
          203 -162 65 86 64 548 67 hstem
          60 79 388 79 vstem
          291 53 rmoveto
          -105 -47 85 131 154 95 178 141 104 48 -85 -129 -156 -95 -178 -141 hvcurveto
          168 -215 rmoveto
          22 22 4 7 21 hvcurveto
          -5 61 rlineto
          -4 -18 -17 -3 -20 hhcurveto
          -70 -61 28 58 -23 hvcurveto
          176 16 120 196 193 vvcurveto
          105 callsubr
          -143 59 -101 111 -25 vhcurveto
          -107 33 85 -49 111 hhcurveto
          endchar
        </CharString>
        <CharString name="R">
          202 callgsubr
          hstem
          474 -83 callsubr
          endchar
        </CharString>
        <CharString name="Racute">
          202 callgsubr
          hstem
          474 -83 callsubr
          66 362 -78 callsubr
        </CharString>
        <CharString name="Rcaron">
          202 callgsubr
          50 45 hstem
          474 -83 callsubr
          58 365 -77 callsubr
        </CharString>
        <CharString name="S">
          162 callgsubr
          hstem
          120 79 180 80 vstem
          -98 callsubr
          endchar
        </CharString>
        <CharString name="Sacute">
          162 callgsubr
          hstem
          120 79 180 80 vstem
          -98 callsubr
          96 717 -78 callsubr
        </CharString>
        <CharString name="Scaron">
          162 callgsubr
          40 45 hstem
          120 79 180 80 vstem
          -98 callsubr
          88 720 -77 callsubr
        </CharString>
        <CharString name="Scircumflex">
          162 callgsubr
          127 45 hstem
          120 79 180 80 vstem
          -98 callsubr
          13 713 -71 callsubr
        </CharString>
        <CharString name="T">
          178 callgsubr
          hstem
          93 472 -30 callsubr
          endchar
        </CharString>
        <CharString name="Tcaron">
          178 callgsubr
          50 45 hstem
          93 472 -30 callsubr
          23 117 -77 callsubr
        </CharString>
        <CharString name="Thorn">
          132 21 -21 152 63 267 63 -63 178 hstemhm
          458 77 hintmask 11011000
          35 hmoveto
          77 hlineto
          30 152 rlineto
          106 hlineto
          167 120 72 161 hvcurveto
          hintmask 11101000
          113 -80 47 -119 vhcurveto
          -115 hlineto
          hintmask 11011000
          23 115 31 callgsubr
          -10 -445 rmoveto
          52 267 rlineto
          105 hlineto
          94 51 -32 -76 -104 -72 -55 -136 hvcurveto
          endchar
        </CharString>
        <CharString name="U">
          12 callsubr
          -86 callsubr
          endchar
        </CharString>
        <CharString name="Uacute">
          12 callsubr
          -86 callsubr
          91 715 -78 callsubr
        </CharString>
        <CharString name="Ubreve">
          12 callsubr
          69 53 hstem
          79 78 128 52 vstem
          -105 callgsubr
          121 717 -58 callgsubr
        </CharString>
        <CharString name="Ucircumflex">
          12 callsubr
          156 45 -86 callsubr
          8 710 -71 callsubr
        </CharString>
        <CharString name="Udieresis">
          12 callsubr
          79 95 hstem
          79 78 123 91 95 90 vstem
          -105 callgsubr
          34 727 -76 callgsubr
        </CharString>
        <CharString name="Ugrave">
          12 callsubr
          -86 callsubr
          141 705 -13 callsubr
        </CharString>
        <CharString name="Uhorn">
          -14 callsubr
          endchar
        </CharString>
        <CharString name="Uhungarumlaut">
          12 callsubr
          -86 callsubr
          53 718 42 callsubr
        </CharString>
        <CharString name="Umacron">
          12 callsubr
          93 54 -86 callsubr
          -2 741 -29 callgsubr
          endchar
        </CharString>
        <CharString name="Uogonek">
          186 -211 54 147 65 -44 -21 666 -20 hstemhm
          79 78 8 65 hintmask 11011100
          42 callgsubr
          hintmask 11011000
          84 callsubr
          hintmask 10111100
          -41 -30 -43 -54 -48 vvcurveto
          hintmask 11011100
          -45 32 -24 46 vhcurveto
          endchar
        </CharString>
        <CharString name="Uring">
          12 callsubr
          64 36 106 36 hstem
          79 78 169 46 101 46 vstem
          -105 callgsubr
          127 712 65 callgsubr
        </CharString>
        <CharString name="Utilde">
          12 callsubr
          73 172 callgsubr
          79 78 hintmask 11101000
          -105 callgsubr
          196 721 -5 callsubr
        </CharString>
        <CharString name="V">
          66 0 76 580 -20 hstem
          82 495 vstem
          141 hmoveto
          93 hlineto
          343 656 rlineto
          -84 hlineto
          -181 -364 -35 -70 -36 -76 -33 -70 rlinecurve
          -4 hlineto
          -4 72 -6 73 -6 71 -27 364 rcurveline
          -79 hlineto
          endchar
        </CharString>
        <CharString name="W">
          108 callgsubr
          6 callgsubr
          hintmask 10101100
          95 hmoveto
          97 hlineto
          179 401 rlineto
          hintmask 11010100
          -79 callgsubr
          hintmask 10101100
          10 361 rlineto
          -80 hlineto
          endchar
        </CharString>
        <CharString name="Wacute">
          108 callgsubr
          6 callgsubr
          hintmask 10101100
          95 hmoveto
          97 hlineto
          179 401 rlineto
          hintmask 11010100
          -79 callgsubr
          hintmask 10101100
          10 361 rlineto
          -80 hlineto
          338 47 -78 callsubr
        </CharString>
        <CharString name="Wcircumflex">
          108 callgsubr
          157 45 6 callgsubr
          hintmask 10110110
          95 hmoveto
          97 hlineto
          179 401 rlineto
          hintmask 11011010
          -79 callgsubr
          hintmask 10110110
          10 361 rlineto
          -80 hlineto
          255 43 -71 callsubr
        </CharString>
        <CharString name="Wdieresis">
          108 callgsubr
          79 95 hstemhm
          99.5 64.5 -64.5 79.5 166 91 0 64.5 30.5 90 hintmask 1011010100000000
          95 hmoveto
          97 hlineto
          179 401 rlineto
          hintmask 1101100100000000
          -79 callgsubr
          hintmask 1011011010000000
          10 361 rlineto
          -80 hlineto
          281 8 callgsubr
        </CharString>
        <CharString name="Wgrave">
          108 callgsubr
          6 callgsubr
          hintmask 10101100
          95 hmoveto
          97 hlineto
          179 401 rlineto
          hintmask 11010100
          -79 callgsubr
          hintmask 10101100
          10 361 rlineto
          -80 hlineto
          388 37 -13 callsubr
        </CharString>
        <CharString name="X">
          64 76 callsubr
          hstem
          -36 582 vstem
          -36 hmoveto
          83 hlineto
          128 180 22 33 25 38 26 35 rlinecurve
          3 hlineto
          10 -35 11 -34 10 -33 60 -184 rcurveline
          84 hlineto
          -117 334 237 322 rlineto
          -82 hlineto
          -120 -171 -20 -30 -23 -33 -23 -32 rlinecurve
          -3 hlineto
          -11 34 -7 28 -9 30 -56 174 rcurveline
          -84 hlineto
          108 -316 rlineto
          endchar
        </CharString>
        <CharString name="Y">
          177 callsubr
          hstem
          83 459 -75 callgsubr
          endchar
        </CharString>
        <CharString name="Yacute">
          177 callsubr
          hstem
          83 459 -75 callgsubr
          102 447 -78 callsubr
        </CharString>
        <CharString name="Ycircumflex">
          177 callsubr
          157 45 hstem
          83 459 -75 callgsubr
          19 443 -71 callsubr
        </CharString>
        <CharString name="Ydieresis">
          177 callsubr
          79 95 hstem
          195 91 95 90 -75 callgsubr
          45 459 -76 callgsubr
        </CharString>
        <CharString name="Ygrave">
          177 callsubr
          hstem
          83 459 -75 callgsubr
          152 437 -13 callsubr
        </CharString>
        <CharString name="Z">
          58 callgsubr
          endchar
        </CharString>
        <CharString name="Zacute">
          58 callgsubr
          315 656 -78 callsubr
        </CharString>
        <CharString name="Zcaron">
          82 122 callsubr
          50 45 hstem
          -1 542 -49 callsubr
          307 659 -77 callsubr
        </CharString>
        <CharString name="Zdotaccent">
          82 122 callsubr
          60 103 hstem
          313 107 -49 callsubr
          353 669 -100 callgsubr
          -26 -32 56 callsubr
        </CharString>
        <CharString name="a">
          -40 callsubr
          hstemhm
          39 79 hintmask 10101000
          -80 callgsubr
          hintmask 01011000
          -32 callgsubr
          hintmask 10101000
          -106 callgsubr
          endchar
        </CharString>
        <CharString name="a.a">
          -67 callgsubr
          endchar
        </CharString>
        <CharString name="a.supa">
          -25 callsubr
        </CharString>
        <CharString name="a.sups">
          -75 -1 callsubr
        </CharString>
        <CharString name="aacute">
          -40 callsubr
          251 -20 -2 callgsubr
          95 527 -81 callgsubr
        </CharString>
        <CharString name="aacute.a">
          -67 callgsubr
          99 530 -81 callgsubr
        </CharString>
        <CharString name="abreve">
          -40 callsubr
          105 55 96 -20 hstemhm
          39 79 78 54 -53 callsubr
          77 callgsubr
          endchar
        </CharString>
        <CharString name="abreve.a">
          -32 callsubr
          73 55 hstem
          32 75 71 54 129 76 vstem
          -107 callgsubr
          122 522 -84 callgsubr
        </CharString>
        <CharString name="acircumflex">
          -40 callsubr
          218 56 -2 callgsubr
          -1 111 callsubr
          endchar
        </CharString>
        <CharString name="acircumflex.a">
          -32 callsubr
          186 56 -63 callsubr
          3 519 -74 callgsubr
        </CharString>
        <CharString name="acute">
          87 211 callsubr
          269 215 vstem
          304 579 -81 callgsubr
        </CharString>
        <CharString name="adieresis">
          -40 callsubr
          123 95 hstemhm
          39 79 83 92 94 91 -93 callsubr
          hintmask 10101111
          34 537 -45 callsubr
        </CharString>
        <CharString name="adieresis.a">
          -32 callsubr
          91 95 hstemhm
          32 75 76 92 86 76 -68 91 hintmask 11111110
          -107 callgsubr
          38 540 -24 callsubr
          hintmask 11111101
          125 callgsubr
        </CharString>
        <CharString name="ae">
          -61 callsubr
          endchar
        </CharString>
        <CharString name="agrave">
          -40 callsubr
          hstemhm
          39 79 hintmask 10101000
          -80 callgsubr
          hintmask 01011000
          -32 callgsubr
          hintmask 10101000
          -106 callgsubr
          156 518 -28 callsubr
        </CharString>
        <CharString name="agrave.a">
          -67 callgsubr
          160 521 -28 callsubr
        </CharString>
        <CharString name="amacron">
          -40 callsubr
          135 54 -2 callgsubr
          -2 549 -72 callgsubr
        </CharString>
        <CharString name="amacron.a">
          -32 callsubr
          103 54 -63 callsubr
          2 552 -72 callgsubr
        </CharString>
        <CharString name="ampersand">
          152 -12 61 565 54 hstem
          15 76 72 66 151 63 vstem
          229 480 rmoveto
          78 44 56 57 35 15 -26 -30 -71 -65 -44 -75 -45 vhcurveto
          -7 28 -4 28 26 vvcurveto
          -49 -492 rmoveto
          72 64 28 45 56 hvcurveto
          41 -35 42 -25 40 -13 32 62 rcurveline
          -31 11 -35 21 -36 29 64 69 50 84 41 88 rrcurveto
          -70 hlineto
          -35 -77 -39 -67 -54 -57 -50 53 -45 68 -28 70 rrcurveto
          91 57 93 60 102 vvcurveto
          61 -36 46 -72 -92 -80 -80 -112 -36 6 -38 12 -39 vhcurveto
          -86 -52 -80 -62 -108 vvcurveto
          -93 66 -60 99 vhcurveto
          -89 163 rmoveto
          65 49 46 62 42 vhcurveto
          30 -74 46 -71 52 -57 rrcurveto
          -33 -43 -47 -20 -46 hhcurveto
          -61 -42 41 61 hvcurveto
          endchar
        </CharString>
        <CharString name="aogonek">
          107 171 callsubr
          64 -43 -21 446 64 -12 -20 hstemhm
          39 79 118 61 hintmask 11010110
          311 2 callgsubr
          44 42 43 68 31 hvcurveto
          hintmask 11001110
          118 callsubr
          hintmask 11010110
          116 callgsubr
          61 61 34 50 89 callsubr
          hintmask 10110110
          -7 -66 rlineto
          -51 216 callsubr
          hintmask 11010110
          -44 31 -23 44 vhcurveto
          -104 258 -63 callgsubr
          -48 -54 -30 -51 hhcurveto
          endchar
        </CharString>
        <CharString name="aogonek.a">
          62 171 callsubr
          61 201 51 135 62 hstem
          32 75 94 61 99 76 vstem
          276 -206 rmoveto
          23 31 11 14 22 hvcurveto
          -16 38 rlineto
          -8 -12 -12 84 callgsubr
          44 42 43 68 31 hvcurveto
          -103 callgsubr
          -54 callsubr
          110 callsubr
          30 callsubr
          vhcurveto
          3 hlineto
          -3 -51 rlineto
          -52 -29 -58 -56 -60 161 callgsubr
          -91 255 -95 callgsubr
          endchar
        </CharString>
        <CharString name="aogonek.b">
          -52 callsubr
          endchar
        </CharString>
        <CharString name="aogonek.d">
          107 -203 51 140 -31 callgsubr
          hstemhm
          39 79 -4 61 hintmask 10101010
          50 callgsubr
          hintmask 11010100
          116 callgsubr
          hvcurveto
          3 3 0 3 hhcurveto
          hintmask 11010010
          -37 -31 -37 -45 -48 vvcurveto
          hintmask 10101010
          -45 31 -22 44 vhcurveto
          hintmask 11010100
          18 255 -63 callgsubr
          -48 -54 -30 -51 hhcurveto
          endchar
        </CharString>
        <CharString name="approxequal">
          50 153 56 30 56 71 56 30 56 hstemhm
          45 406 hintmask 01111000
          332 366 rmoveto
          74 callsubr
          hintmask 01111000
          211 callgsubr
          hintmask 11011000
          -213 vmoveto
          74 callsubr
          hintmask 11011000
          211 callgsubr
          endchar
        </CharString>
        <CharString name="aring">
          -40 callsubr
          90 36 121 36 hstemhm
          39 79 118 52 110 52 hintmask 1010111110000000
          -80 callgsubr
          hintmask 0101111110000000
          -32 callgsubr
          hintmask 1010111110000000
          -106 callgsubr
          124 504 -59 callsubr
        </CharString>
        <CharString name="aring.a">
          -32 callsubr
          58 36 121 36 hstemhm
          32 75 111 52 91 76 -57 52 226 callsubr
          153 -12 rmoveto
          30 callsubr
          hvcurveto
          23 callgsubr
          hintmask 1111111100000000
          62 hlineto
          -103 callgsubr
          -54 callsubr
          226 callsubr
          110 callsubr
          vhcurveto
          32 61 -95 callgsubr
          128 507 -59 callsubr
        </CharString>
        <CharString name="arrowdown">
          196 callsubr
          294 -27 rmoveto
          5 hlineto
          264 262 -42 39 -193 -195 rlineto
          448 -63 -448 vlineto
          -193 195 -42 -39 rlineto
          endchar
        </CharString>
        <CharString name="arrowup">
          196 callsubr
          265 -27 rmoveto
          63 449 hlineto
          193 -195 42 39 -264 261 rlineto
          -5 hlineto
          -264 -261 42 -39 193 195 rlineto
          endchar
        </CharString>
        <CharString name="asciicircum">
          49 594 76 hstem
          83 354 vstem
          83 283 rmoveto
          66 hlineto
          64 178 47 133 rlineto
          3 hlineto
          45 -133 65 -178 rlineto
          64 hlineto
          -146 387 rlineto
          -62 hlineto
          endchar
        </CharString>
        <CharString name="asciitilde">
          50 260 56 30 56 hstemhm
          45 406 vstemhm
          332 260 rmoveto
          41 45 27 62 33 hvcurveto
          -43 28 rlineto
          -43 -22 -23 -18 -29 hhcurveto
          hintmask 01100000
          131 callgsubr
          hintmask 11100000
          211 callgsubr
          endchar
        </CharString>
        <CharString name="asterisk">
          -27 422 291 hstem
          125 288 vstem
          176 434 rmoveto
          80 76 52 -88 40 23 -38 97 103 31 -7 43 -103 -14 8 107 -44 4 -25 -106 -99 33 -18 -40 88 -49 -69 -88 rlineto
          endchar
        </CharString>
        <CharString name="at">
          384 -155 52 150 53 -44 53 267 53 164 51 hstemhm
          45 57 142 61 172 47 198 55 hintmask 1101111110000000
          352 -155 rmoveto
          55 55 14 29 54 hvcurveto
          -23 46 rlineto
          -24 -39 -47 -13 -49 hhcurveto
          -140 -116 99 178 238 189 181 182 172 77 -110 -145 -153 -76 -85 -65 -53 -13 42 62 14 hvcurveto
          50 217 rlineto
          -51 hlineto
          -13 -43 rlineto
          -2 hlineto
          33 -17 -25 18 -31 hhcurveto
          -108 -88 -120 -118 213 callsubr
          -86 54 -49 61 44 40 29 38 31 205 callgsubr
          34 -29 47 hhcurveto
          108 102 106 195 171 -108 125 -189 -224 -211 -207 -274 -202 135 -116 172 213 callsubr
          21 264 rmoveto
          -39 -29 29 60 78 56 100 79 22 19 -11 -34 18 hvcurveto
          -36 -161 rlineto
          -42 -31 -30 -19 -29 hhcurveto
          endchar
        </CharString>
        <CharString name="at.case">
          372 -21 50 120 52 -44 53 239 53 135 49 hstemhm
          98 56 125 60 158 48 170 53 hintmask 1101111110000000
          368 -21 rmoveto
          51 57 11 30 51 hvcurveto
          -14 43 rlineto
          -23 -39 -49 -11 -48 hhcurveto
          -132 -91 85 148 214 170 161 169 152 70 -92 -126 -139 -61 -79 -55 -50 -13 41 62 15 hvcurveto
          45 192 rlineto
          -50 hlineto
          -14 -43 rlineto
          -2 hlineto
          33 -16 -24 16 -30 hhcurveto
          -102 -79 -108 -105 213 callsubr
          -85 48 -47 56 41 41 28 38 29 205 callgsubr
          32 -27 46 hhcurveto
          97 87 97 179 150 -93 111 -177 -205 -195 -180 -255 -168 113 -104 157 213 callsubr
          30 231 rmoveto
          -33 -26 27 59 67 48 86 72 21 18 -9 -35 17 hvcurveto
          -30 -135 rlineto
          -42 -30 -29 -18 -28 hhcurveto
          endchar
        </CharString>
        <CharString name="atilde">
          -40 callsubr
          111 147 callgsubr
          39 79 hintmask 1010010010000000
          -80 callgsubr
          hintmask 0101010010000000
          -32 callgsubr
          hintmask 1010010010000000
          -106 callgsubr
          hintmask 1010101010000000
          201 525 33 callgsubr
          hintmask 1010100110000000
          -52 callgsubr
          hintmask 1010010010000000
          -61 callgsubr
          hintmask 1010101010000000
          52 callgsubr
        </CharString>
        <CharString name="atilde.a">
          -32 callsubr
          79 59 26 59 hstemhm
          32 75 254 76 hintmask 11101110
          -107 callgsubr
          hintmask 11111110
          205 528 33 callgsubr
          -52 callgsubr
          hintmask 11101110
          -61 callgsubr
          hintmask 11111110
          52 callgsubr
        </CharString>
        <CharString name="b">
          106 139 callgsubr
          214 -20 hstemhm
          417 79 hintmask 10111000
          86 callgsubr
          hintmask 01111000
          -142 -712 rlineto
          63 hlineto
          hintmask 10111000
          63 callsubr
          endchar
        </CharString>
        <CharString name="b.sups">
          -70 140 callgsubr
          339 58 vstem
          220 387 rmoveto
          198 callgsubr
          -35 -19 -26 -30 hvcurveto
          -3 hlineto
          16 66 24 118 rlineto
          -58 hlineto
          -93 -468 rlineto
          46 hlineto
          13 39 rlineto
          4 hlineto
          -32 16 28 -15 30 hhcurveto
          -1 48 rmoveto
          -22 -22 12 168 callgsubr
          31 24 -24 -53 -86 -60 -78 -60 hvcurveto
          endchar
        </CharString>
        <CharString name="backslash">
          -90 -160 870 hstem
          88 169 vstem
          203 -160 rmoveto
          54 hlineto
          -117 870 rlineto
          -52 hlineto
          endchar
        </CharString>
        <CharString name="bar">
          -199 187 callsubr
          vstem
          95 -250 rmoveto
          52 1000 -52 hlineto
          endchar
        </CharString>
        <CharString name="braceleft">
          -140 200 callsubr
          47 63 -8 60 hintmask 11110000
          135 -152 rmoveto
          44 213 callgsubr
          -24 hlineto
          -43 -12 16 33 hvcurveto
          hintmask 11101000
          63 52 137 70 vvcurveto
          29 -12 21 -32 11 vhcurveto
          4 vlineto
          47 12 24 35 13 65 12 61 7 62 11 57 rrcurveto
          64 13 18 30 53 hhcurveto
          26 213 callgsubr
          -46 hlineto
          -80 -34 -31 -104 -20 hvcurveto
          -14 -68 -5 -59 -12 -64 rrcurveto
          -37 -8 -22 -42 -68 hhcurveto
          -11 -50 rlineto
          57 13 -28 -28 hvcurveto
          hintmask 11110000
          -58 -55 -137 -74 vvcurveto
          -56 26 -24 62 vhcurveto
          endchar
        </CharString>
        <CharString name="braceright">
          -137 200 callsubr
          137 61 -9 64 hintmask 11101000
          -52 -152 rmoveto
          46 hlineto
          hintmask 11110000
          78 35 30 103 21 hvcurveto
          14 69 5 60 12 64 rrcurveto
          37 7 22 42 69 hhcurveto
          11 50 rlineto
          -58 -12 28 26 hvcurveto
          hintmask 11101000
          59 55 138 74 vvcurveto
          54 -26 26 -63 vhcurveto
          -44 hlineto
          -10 -45 rlineto
          25 hlineto
          42 12 -16 -34 hvcurveto
          hintmask 11110000
          -63 -52 -137 -69 vvcurveto
          -29 11 -21 33 -11 vhcurveto
          -4 vlineto
          -47 -12 -23 -35 -14 -66 -11 -62 -8 -61 -11 -57 rrcurveto
          -65 -12 -19 -28 -53 hhcurveto
          -26 hlineto
          endchar
        </CharString>
        <CharString name="bracketleft">
          -138 160 callgsubr
          8 341 vstem
          8 -152 rmoveto
          169 219 callsubr
          -112 hlineto
          208 callsubr
          113 hlineto
          7 45 rlineto
          -169 hlineto
          endchar
        </CharString>
        <CharString name="bracketright">
          -138 160 callgsubr
          -49 343 vstem
          -49 -152 rmoveto
          171 hlineto
          172 860 219 callgsubr
          -8 -45 221 callsubr
          -155 -770 rlineto
          -111 hlineto
          endchar
        </CharString>
        <CharString name="breve">
          87 571 55 hstem
          198 54 vstem
          327 571 -84 callgsubr
        </CharString>
        <CharString name="brokenbar">
          -199 187 callsubr
          vstem
          95 289 rmoveto
          52 461 -52 hlineto
          -1000 vmoveto
          52 463 -52 hlineto
          endchar
        </CharString>
        <CharString name="bullet">
          -135 145 238 hstem
          41 217 vstem
          139 145 rmoveto
          72 47 67 66 61 -42 44 -55 -74 -46 -69 -64 -62 41 -43 57 hvcurveto
          endchar
        </CharString>
        <CharString name="c">
          176 callsubr
          hstem
          37 78 vstem
          -70 callsubr
          endchar
        </CharString>
        <CharString name="c.sups">
          -138 387 47 243 47 hstem
          86 58 vstem
          210 387 rmoveto
          42 35 16 17 21 hvcurveto
          -20 38 rlineto
          -12 -19 -21 -12 -27 hhcurveto
          -42 -35 29 59 71 51 84 69 25 16 -9 -18 17 hvcurveto
          34 36 rlineto
          22 -21 -29 16 -38 hhcurveto
          -106 -76 -106 -103 -80 53 -48 71 hvcurveto
          endchar
        </CharString>
        <CharString name="cacute">
          176 callsubr
          219 -20 hstem
          37 78 vstem
          -70 callsubr
          71 591 -81 callgsubr
        </CharString>
        <CharString name="caron">
          87 575 56 hstem
          201 309 vstem
          290 575 rmoveto
          82 hlineto
          -5 callgsubr
          10 callsubr
        </CharString>
        <CharString name="ccaron">
          176 callsubr
          77 128 callgsubr
          37 78 hintmask 11101100
          -70 callsubr
          57 587 rmoveto
          82 hlineto
          hintmask 11110100
          -5 callgsubr
          hintmask 11101100
          10 callsubr
        </CharString>
        <CharString name="ccedilla">
          5 -226 39 200 -21 443 63 hstem
          37 78 76 63 vstem
          74 -226 rmoveto
          154 callsubr
          65 3 47 28 33 26 -34 50 rcurveline
          -23 -30 -35 -20 -43 hhcurveto
          -77 -38 48 88 133 91 114 97 38 23 -14 -30 25 hvcurveto
          45 48 rlineto
          33 -29 -39 26 -58 hhcurveto
          -141 -130 -134 -181 -107 55 -68 83 -16 hvcurveto
          -53 -82 rlineto
          -4 callsubr
        </CharString>
        <CharString name="ccircumflex">
          176 callsubr
          186 56 hstem
          37 78 vstem
          -70 callsubr
          -25 580 -74 callgsubr
        </CharString>
        <CharString name="cdotaccent">
          176 callsubr
          89 103 hstem
          37 78 155 107 vstem
          -70 callsubr
          103 599 -103 callsubr
        </CharString>
        <CharString name="cedilla">
          87 -226 39 97 93 -68 68 hstemhm
          201 63 hintmask 10110000
          84 -226 rmoveto
          3 callgsubr
          41 68 rcurveline
          -54 hlineto
          hintmask 11010000
          -60 -93 rlineto
          -4 callsubr
        </CharString>
        <CharString name="cent">
          50 -14 169 -64 64 hstemhm
          78 76 hintmask 10100000
          203 -14 rmoveto
          50 hlineto
          hintmask 01100000
          21 105 61 4 45 24 42 27 rlinecurve
          -27 52 -31 -22 -35 -18 -43 -3 rlinecurve
          69 349 32 -5 21 -17 23 -26 rlinecurve
          47 45 -27 31 -34 28 -49 7 rlinecurve
          20 103 rlineto
          -49 hlineto
          -20 -102 rlineto
          -117 -11 -124 -104 -166 vvcurveto
          -113 56 -69 90 -13 vhcurveto
          -70 208 rmoveto
          110 73 79 79 14 vhcurveto
          -69 -345 rlineto
          -55 15 -28 52 75 vvcurveto
          endchar
        </CharString>
        <CharString name="circumflex">
          87 684 56 hstem
          177 310 vstem
          208 568 -74 callgsubr
        </CharString>
        <CharString name="colon">
          -188 -12 120 249 120 hstemhm
          23 113 -49 113 hintmask 11010000
          134 357 rmoveto
          -57 callgsubr
          hintmask 11100000
          -64 -369 rmoveto
          -57 callgsubr
          endchar
        </CharString>
        <CharString name="colon.sups">
          -256 387 92 133 92 hstemhm
          78 89 -44 89 hintmask 11100000
          115 387 35 callgsubr
          hintmask 11010000
          45 225 46 callgsubr
        </CharString>
        <CharString name="colonmonetary">
          50 -12 64 -40 -21 599 63 -11 -20 hstemhm
          62 74 hintmask 01011000
          92 -110 rmoveto
          36 hlineto
          37 118 15 -8 18 -6 18 -3 rlinecurve
          hintmask 10011000
          -31 -101 rlineto
          35 hlineto
          31 98 rlineto
          67 56 28 46 51 hvcurveto
          -38 47 -32 -31 -39 -24 -45 -2 rlinecurve
          158 505 11 -12 10 -15 9 -17 rlinecurve
          56 35 -17 31 -20 27 -28 20 rlinecurve
          39 125 rlineto
          -36 hlineto
          -34 -109 rlineto
          hintmask 01101000
          -16 6 -17 4 -21 1 31 98 rcurveline
          -35 hlineto
          -31 -100 rlineto
          -146 -20 -122 -166 -236 vvcurveto
          -90 26 -70 47 -41 vhcurveto
          1 209 rmoveto
          176 75 138 97 32 vhcurveto
          -146 -469 rlineto
          -17 31 -9 42 50 vvcurveto
          216 353 rmoveto
          19 15 -4 -6 14 hvcurveto
          -164 -525 -18 4 -17 9 -14 13 rlinecurve
          159 509 rlineto
          2 2 0 2 hhcurveto
          endchar
        </CharString>
        <CharString name="comma">
          -188 -164 272 -112 112 hstemhm
          26 118 hintmask 10100000
          -20 -164 rmoveto
          hintmask 01100000
          97 callsubr
        </CharString>
        <CharString name="comma.dnom">
          -260 -114 198 -85 85 hstemhm
          0 91 -50 50 hintmask 10010000
          -24 -114 -20 callsubr
        </CharString>
        <CharString name="comma.numr">
          -260 152 198 -85 85 hstemhm
          50 91 -50 50 hintmask 10010000
          26 152 -20 callsubr
        </CharString>
        <CharString name="comma.subs">
          -260 -291 198 -85 85 hstemhm
          -37 91 -50 50 hintmask 10010000
          -61 -291 -20 callsubr
        </CharString>
        <CharString name="comma.sups">
          -260 281 198 -85 85 hstemhm
          77 91 -50 50 hintmask 10010000
          53 281 -20 callsubr
        </CharString>
        <CharString name="copyright">
          235 -11 41 95 51 286 50 101 40 hstem
          36 43 101 59 379 25 callgsubr
          25 95 rmoveto
          53 40 21 30 41 hvcurveto
          -25 39 rlineto
          -21 -33 -28 -18 -37 hhcurveto
          -60 -38 37 72 103 78 74 64 30 19 -12 -23 19 hvcurveto
          37 34 rlineto
          28 -22 -29 23 -47 hhcurveto
          -96 -112 -90 -146 -98 60 -53 86 hvcurveto
          endchar
        </CharString>
        <CharString name="currency">
          50 139 58 269 57 hstem
          67 72 227 72 vstem
          46 115 rmoveto
          72 63 rlineto
          -26 24 34 -13 42 hhcurveto
          42 42 16 26 35 hvcurveto
          54 -68 43 36 -53 68 rlineto
          35 39 22 53 59 vvcurveto
          29 -6 26 -10 21 vhcurveto
          73 63 -35 42 -73 -63 rlineto
          23 -25 -34 14 -41 hhcurveto
          -41 -40 -14 -24 -34 hvcurveto
          -48 63 -44 -37 47 -61 rlineto
          -37 -40 -23 -55 -60 vvcurveto
          -30 6 -25 9 -21 vhcurveto
          -71 -62 rlineto
          215 40 rmoveto
          -56 -31 38 68 92 71 71 69 56 31 -38 -68 -93 -71 -70 -69 hvcurveto
          endchar
        </CharString>
        <CharString name="d">
          105 139 callgsubr
          214 -20 hstemhm
          39 79 hintmask 10111000
          -80 callgsubr
          hintmask 01111000
          -12 callgsubr
          hintmask 10111000
          -38 callsubr
          endchar
        </CharString>
        <CharString name="d.sups">
          -65 140 callgsubr
          87 58 vstem
          181 387 rmoveto
          40 40 21 34 32 20 callgsubr
          -7 -47 rlineto
          47 hlineto
          92 465 rlineto
          -57 hlineto
          -23 -116 -8 -65 1 callsubr
          30 -15 -28 15 -30 hhcurveto
          -91 -86 -97 -122 -77 37 -41 57 hvcurveto
          19 48 rmoveto
          -31 -24 24 53 86 60 78 60 22 22 -12 -33 17 hvcurveto
          -25 -134 rlineto
          -39 -31 -38 -23 -32 hhcurveto
          endchar
        </CharString>
        <CharString name="dagger">
          5 493.5 61 157.5 -20 hstem
          101 342 vstem
          118 -80 rmoveto
          66 hlineto
          111 576 135 -5 13 66 -137 -5 36 160 rlineto
          -66 hlineto
          -28 -160 -134 5 -13 -66 138 5 rlineto
          endchar
        </CharString>
        <CharString name="daggerdbl">
          5 76.5 60.5 357.5 60 157.5 -20 hstem
          18 425 vstem
          119 -80 rmoveto
          66 hlineto
          27 159 135 -5 13 66 -138 -6 41 182 32 182 135 -7 13 66 -137 -5 35 160 rlineto
          -65 hlineto
          -28 -160 -135 5 -12 -66 138 7 -42 -182 -31 -182 -135 6 -13 -66 136 5 rlineto
          endchar
        </CharString>
        <CharString name="dcaron">
          112 139 callgsubr
          50 164 hstemhm
          39 79 hintmask 10111000
          -80 callgsubr
          hintmask 01111000
          -12 callgsubr
          hintmask 10111000
          -38 callsubr
          359 496 65 callsubr
        </CharString>
        <CharString name="dcroat">
          105 -12 64 -31 -21 414 64 94 45 -45 140 -137.5 42.5 hstemhm
          39 79 hintmask 10110010
          -80 callgsubr
          hintmask 01100110
          -8 -72 rlineto
          63 hlineto
          116 572 70 5 rlineto
          hintmask 10110010
          10 40 rlineto
          -71 hlineto
          hintmask 10101010
          19 95 -15 callgsubr
          hintmask 10110010
          -19 -95 rlineto
          -156 hlineto
          -8 -45 rlineto
          155 hlineto
          -14 -70 -16 -95 rlineto
          -3 hlineto
          43 -22 -39 28 -52 hhcurveto
          -134 -127 -148 -166 -16 callsubr
          hvcurveto
          -3 callgsubr
          115 88 123 -17 callsubr
          26 hvcurveto
          -40 -197 rlineto
          -63 -49 -53 -30 -51 hhcurveto
          endchar
        </CharString>
        <CharString name="degree">
          -117 432 44 166 43 hstem
          101 47 143 47 vstem
          208 432 rmoveto
          71 59 65 77 66 -45 45 -61 -72 -59 -65 -77 -66 45 -45 62 hvcurveto
          3 44 rmoveto
          -40 -23 31 38 49 32 48 48 40 23 -31 -39 -49 -32 -47 -48 hvcurveto
          endchar
        </CharString>
        <CharString name="dieresis">
          87 589 95 hstem
          203 92 94 91 vstem
          243 589 -45 callsubr
        </CharString>
        <CharString name="divide">
          50 97 101 104 57 101 102 hstem
          202 102 vstem
          48 302 rmoveto
          178 callsubr
          205 -262 rmoveto
          29 22 22 186 callsubr
          -22 29 hvcurveto
          363 vmoveto
          29 22 23 186 callsubr
          -23 29 hvcurveto
          endchar
        </CharString>
        <CharString name="dollar">
          50 -110 162 -39 -21 598 161 hstemhm
          115 76 138 75 hintmask 10111000
          142 -110 rmoveto
          56 hlineto
          20 98 rlineto
          113 7 73 81 104 173 -213 13 122 vvcurveto
          60 46 42 64 46 40 -30 -39 27 vhcurveto
          50 45 -29 39 -42 31 -47 12 rlinecurve
          21 103 rlineto
          -56 hlineto
          -20 -98 rlineto
          -103 -6 -73 -71 -98 -153 214 -13 -144 vvcurveto
          -69 -52 -47 -73 -60 -48 38 40 -30 vhcurveto
          hintmask 01111000
          -49 -48 34 -41 52 -37 59 -12 rlinecurve
          endchar
        </CharString>
        <CharString name="dong">
          50 0 45 65 55 257 54 82 46 -43.5 43.5 hstemhm
          74 67 hintmask 11110100
          190 110 rmoveto
          44 47 24 31 35 hvcurveto
          2 hlineto
          -5 -45 rlineto
          55 hlineto
          hintmask 11101100
          89 438 75 5 rlineto
          hintmask 11110100
          9 41 rlineto
          -74 hlineto
          14 71 rlineto
          -66 hlineto
          -14 -71 rlineto
          -134 hlineto
          -9 -46 rlineto
          133 hlineto
          -9 -45 -15 -85 rlineto
          28 -20 -23 20 -45 hhcurveto
          -98 -107 -94 -139 -80 43 -53 73 hvcurveto
          21 55 rmoveto
          -46 -24 35 54 97 75 71 66 29 25 -15 -33 18 hvcurveto
          -30 -154 rlineto
          -37 -41 -35 -18 -37 hhcurveto
          -179 -165 rmoveto
          343 213 callgsubr
          -344 hlineto
          endchar
        </CharString>
        <CharString name="dotaccent">
          87 587 103 hstem
          287 107 vstem
          336 587 -103 callsubr
        </CharString>
        <CharString name="dotlessi">
          121 callgsubr
          hstem
          31 174 39 callgsubr
          endchar
        </CharString>
        <CharString name="e">
          51 -26 callsubr
          -92 callgsubr
          endchar
        </CharString>
        <CharString name="e.sups">
          100 callsubr
          215 387 -37 callgsubr
        </CharString>
        <CharString name="eacute">
          51 -26 callsubr
          219 -20 -92 callgsubr
          -88 298 -81 callgsubr
        </CharString>
        <CharString name="eacute.sups">
          100 callsubr
          252 773 rmoveto
          125 92 -36 42 -115 -103 rlineto
          -11 -417 -37 callgsubr
        </CharString>
        <CharString name="ebreve">
          51 -26 callsubr
          73 55 96 -20 hstem
          37 74 72 54 145 65 vstem
          -107 callsubr
          -65 290 -84 callgsubr
        </CharString>
        <CharString name="ecaron">
          51 -26 callsubr
          77 128 callgsubr
          37 74 271 65 hintmask 11110111
          -107 callsubr
          -102 294 rmoveto
          82 hlineto
          hintmask 11111011
          -5 callgsubr
          hintmask 11110111
          10 callsubr
        </CharString>
        <CharString name="ecircumflex">
          51 -26 callsubr
          186 56 -92 callgsubr
          -184 287 -74 callgsubr
        </CharString>
        <CharString name="edieresis">
          51 -26 callsubr
          91 95 hstemhm
          37 74 77 92 94 91 -83 65 hintmask 11111101
          -107 callsubr
          -149 308 -24 callsubr
          hintmask 11111110
          125 callgsubr
        </CharString>
        <CharString name="edotaccent">
          51 -26 callsubr
          89 103 hstemhm
          37 74 161 107 3 65 hintmask 11101010
          -107 callsubr
          hintmask 11111100
          -56 306 -103 callsubr
        </CharString>
        <CharString name="egrave">
          51 -26 callsubr
          -92 callgsubr
          -27 289 -28 callsubr
        </CharString>
        <CharString name="egrave.sups">
          100 callsubr
          299 769 rmoveto
          36 24 -79 120 -48 -36 rlineto
          7 -490 -37 callgsubr
        </CharString>
        <CharString name="eight">
          -90 callgsubr
        </CharString>
        <CharString name="eight.c">
          50 -12 57 566 57 hstemhm
          30 70 24 69 177 71 -28 158 callsubr
          117 102 73 116 71 -50 52 -39 27 hvcurveto
          4 vlineto
          hintmask 11110100
          76 43 53 57 90 vvcurveto
          100 -80 47 -83 -104 -90 -68 -114 -53 22 -36 38 -38 vhcurveto
          -4 vlineto
          hintmask 11101000
          -81 -36 -73 -64 -101 vvcurveto
          -113 98 -53 94 vhcurveto
          hintmask 11110100
          89 367 rmoveto
          -73 35 -45 32 67 vvcurveto
          76 57 46 62 58 43 -37 -63 -72 -49 -50 -53 -34 vhcurveto
          hintmask 11101000
          -85 -310 rmoveto
          -69 -57 43 74 78 50 50 71 40 hvcurveto
          79 -44 70 -36 -77 vvcurveto
          -82 -71 -46 -73 vhcurveto
          endchar
        </CharString>
        <CharString name="eight.dnom">
          -77 -12 44 325 45 hstemhm
          13 95 callsubr
          hintmask 11101000
          134 -12 -84 callsubr
        </CharString>
        <CharString name="eight.numr">
          -77 254 44 325 45 hstemhm
          63 95 callsubr
          hintmask 11101000
          184 254 -84 callsubr
        </CharString>
        <CharString name="eight.onum">
          -90 callgsubr
        </CharString>
        <CharString name="eight.pnum">
          -90 callgsubr
        </CharString>
        <CharString name="eight.subs">
          -77 -189 44 325 45 hstemhm
          -24 95 callsubr
          hintmask 11101000
          97 -189 -84 callsubr
        </CharString>
        <CharString name="eight.sups">
          -77 383 44 325 45 hstemhm
          90 95 callsubr
          hintmask 11101000
          211 383 -84 callsubr
        </CharString>
        <CharString name="eight.tnum">
          -90 callgsubr
        </CharString>
        <CharString name="ellipsis">
          529 -12 120 hstem
          83 113 216 113 216 113 cntrmask 01110000
          130 -12 rmoveto
          -57 callgsubr
          329 hmoveto
          -57 callgsubr
          329 hmoveto
          -57 callgsubr
          endchar
        </CharString>
        <CharString name="emacron">
          51 -26 callsubr
          103 54 -92 callgsubr
          -185 320 -72 callgsubr
        </CharString>
        <CharString name="emdash">
          114 callgsubr
        </CharString>
        <CharString name="emdash.sups">
          123 551 41 hstem
          105 478 vstem
          105 551 rmoveto
          473 hlineto
          5 41 rlineto
          -473 hlineto
          endchar
        </CharString>
        <CharString name="endash">
          33 225 54 hstem
          35 392 vstem
          35 225 rmoveto
          380 hlineto
          12 54 rlineto
          -381 hlineto
          endchar
        </CharString>
        <CharString name="endash.sups">
          -87 551 41 hstem
          105 267 vstem
          105 551 rmoveto
          262 hlineto
          5 41 rlineto
          -262 hlineto
          endchar
        </CharString>
        <CharString name="eogonek">
          51 171 callsubr
          61 178 52 158 61 hstem
          37 74 68 61 142 65 vstem
          253 -206 rmoveto
          24 -36 callsubr
          40 33 52 112 66 hvcurveto
          -30 51 rlineto
          -23 -31 -40 -19 -38 hhcurveto
          99 callsubr
          -130 76 -73 115 9 10 1 2 9 vhcurveto
          -42 -38 -35 -44 -48 vvcurveto
          -44 31 -23 43 vhcurveto
          -131 485 94 callsubr
          endchar
        </CharString>
        <CharString name="eogonek.d">
          51 -198 51 158 -21 237 174 callsubr
          hintmask 11110110
          191 -198 -34 callsubr
          53 52 34 59 17 hvcurveto
          38 11 28 14 31 21 -30 51 rcurveline
          -23 -31 -40 -19 -38 hhcurveto
          hintmask 11111010
          77 callsubr
          hintmask 11110110
          -46 -31 -31 -42 -48 161 callgsubr
          -69 477 94 callsubr
          endchar
        </CharString>
        <CharString name="equal">
          50 195 57 156 57 210 callgsubr
          48 408 rmoveto
          178 callsubr
          -270 vmoveto
          178 callsubr
          endchar
        </CharString>
        <CharString name="equal.subs">
          -77 -95 51 117 51 hstem
          -29 307 vstem
          -29 73 146 callgsubr
        </CharString>
        <CharString name="equal.sups">
          -77 484 51 117 51 hstem
          85 307 vstem
          85 652 146 callgsubr
        </CharString>
        <CharString name="estimated">
          370 -12 20 308 18 306 20 hstem
          66 130 450 128 vstem
          420 -12 rmoveto
          114 102 52 80 66 hvcurveto
          -52 hlineto
          -68 -56 -82 -44 -90 hhcurveto
          -86 -78 38 62 -54 hvcurveto
          -4 6 -4 6 8 vvcurveto
          184 vlineto
          2 2 2 2 vhcurveto
          574 8 hlineto
          186 -158 150 -196 -196 -158 -150 -186 -186 158 -150 196 vhcurveto
          -220 346 rmoveto
          -2 -2 2 4 hvcurveto
          180 vlineto
          8 4 8 4 6 vhcurveto
          60 56 76 38 86 hhcurveto
          82 76 -36 -58 56 hvcurveto
          6 -6 4 -8 -8 vvcurveto
          -184 vlineto
          -4 -2 -2 -4 vhcurveto
          endchar
        </CharString>
        <CharString name="eth">
          94 -12 64 334 61 hstem
          43 70 282 74 vstem
          113 179 rmoveto
          103 65 104 103 52 36 -37 -40 26 vhcurveto
          -141 -9 -65 -116 -96 hhcurveto
          -72 -40 58 69 hvcurveto
          103 -191 rmoveto
          160 93 169 190 101 -27 81 -45 66 hvcurveto
          133 55 -16 41 -145 -60 -34 39 -42 33 -46 27 rlinecurve
          -36 -46 37 -24 32 -26 26 -29 rlinecurve
          -135 -56 16 -41 147 61 36 -52 20 -62 5 -79 rlinecurve
          44 -29 -44 27 -48 hhcurveto
          -143 -88 -137 -138 -106 74 -78 99 hvcurveto
          endchar
        </CharString>
        <CharString name="exclam">
          -148 -12 120 -99 -21 hstemhm
          43 113 hintmask 01100000
          102 196 81 callsubr
          -93 -683 rmoveto
          38 27 35 34 hvcurveto
          hintmask 10100000
          29 -16 22 -30 -38 -29 -36 -34 vhcurveto
          hintmask 01100000
          -29 19 -21 29 vhcurveto
          endchar
        </CharString>
        <CharString name="exclamdown">
          -148 378 120 0 -20 hstemhm
          126 112 hintmask 01100000
          21 -185 rmoveto
          77 hlineto
          82 475 rlineto
          -54 hlineto
          -86 -383 rlineto
          hintmask 10100000
          131 471 rmoveto
          39 28 36 34 29 -18 21 -29 -38 -27 -34 -35 -29 16 -22 29 hvcurveto
          endchar
        </CharString>
        <CharString name="f">
          -148 21 160 callsubr
          hstem
          43 354 vstem
          -19 callgsubr
          endchar
        </CharString>
        <CharString name="f.sups">
          -235 670 197 callsubr
          46 111 47 hstemhm
          90 243 hintmask 01110000
          90 395 rmoveto
          57 hlineto
          55 275 rlineto
          68 218 callgsubr
          -67 hlineto
          10 52 rlineto
          37 8 19 22 28 hhcurveto
          15 11 -4 -7 10 hvcurveto
          20 41 rlineto
          12 -20 -19 5 -21 hhcurveto
          -59 -37 -41 -66 -12 hvcurveto
          hintmask 10110000
          -10 -51 -45 -3 rlineto
          hintmask 01110000
          -7 -43 rlineto
          42 hlineto
          endchar
        </CharString>
        <CharString name="f_f">
          119 21 -21 424 62 166 62 -52 62 hstemhm
          43 622 hintmask 11101000
          153 callgsubr
          hintmask 11011000
          26 callgsubr
          hintmask 11101000
          33 callsubr
          86 callsubr
          endchar
        </CharString>
        <CharString name="f_f_i">
          357 424 82 callgsubr
          101 103 -38 62 -52 62 hstemhm
          693 107 hintmask 01010100
          153 callgsubr
          hintmask 01001100
          26 callgsubr
          hintmask 10010100
          28 callsubr
          hintmask 01100100
          86 callsubr
          185 -424 rmoveto
          54 callsubr
          64 73 callgsubr
        </CharString>
        <CharString name="f_f_l">
          368 -12 64 372 82 callgsubr
          166 62 -52 62 hstemhm
          594 48 callsubr
          hintmask 10110010
          153 callgsubr
          hintmask 10101010
          26 callgsubr
          hintmask 11010010
          28 callsubr
          hintmask 10110010
          86 callsubr
          263 -436 rmoveto
          21 14 3 5 13 hvcurveto
          -1 59 rlineto
          hintmask 10110100
          -35 callsubr
          hintmask 10110010
          145 callsubr
        </CharString>
        <CharString name="f_f_t">
          399 -12 62 374 82 callgsubr
          166 62 -52 62 hstemhm
          573 78 hintmask 10110100
          311 83 callsubr
          164 hlineto
          -57 -274 rlineto
          -4 -18 -2 -16 -20 vvcurveto
          -60 32 -48 84 39 31 12 10 22 vhcurveto
          -16 55 rlineto
          -7 -15 -17 -8 -20 hhcurveto
          -46 -16 20 40 13 2 11 2 12 hvcurveto
          57 278 rlineto
          124 hlineto
          13 62 rlineto
          -123 hlineto
          26 134 rlineto
          -64 hlineto
          -37 -134 rlineto
          -167 hlineto
          hintmask 10101100
          26 callgsubr
          hintmask 11010100
          28 callsubr
          hintmask 10110100
          86 callsubr
          endchar
        </CharString>
        <CharString name="f_t">
          131 -12 62 -29 160 callsubr
          hstemhm
          306 78 hintmask 01111000
          43 hmoveto
          76 hlineto
          86 424 rlineto
          163 hlineto
          -57 -274 rlineto
          -4 -18 -1 -16 -20 vvcurveto
          hintmask 10111000
          193 callsubr
          181 callsubr
          21 vhcurveto
          -16 55 rlineto
          71 callsubr
          rlineto
          -167 hlineto
          17 83 rlineto
          57 11 11 callsubr
          -65 -5 151 callsubr
          endchar
        </CharString>
        <CharString name="fi">
          89 21 -21 424 62 101 103 -28 62 hstemhm
          425 107 hintmask 11011000
          -19 callgsubr
          185 -424 rmoveto
          54 callsubr
          hintmask 11101000
          64 73 callgsubr
        </CharString>
        <CharString name="figuredash">
          50 225 54 hstem
          35 409 vstem
          35 225 rmoveto
          397 hlineto
          12 54 rlineto
          -398 hlineto
          endchar
        </CharString>
        <CharString name="five">
          50 223 callsubr
          351 77 vstem
          188 25 callsubr
        </CharString>
        <CharString name="five.c">
          50 -12 64 301 60 178 65 hstem
          350 77 vstem
          187 -12 rmoveto
          125 115 97 153 116 -70 59 -95 -34 -27 -8 -12 -23 hvcurveto
          54 198 rlineto
          233 113 callgsubr
          -300 hlineto
          -81 -309 33 -27 rlineto
          23 41 24 10 42 hhcurveto
          68 45 -42 -86 -105 -75 -68 -84 -74 -39 41 44 -29 hvcurveto
          -51 -41 rlineto
          -60 40 61 -48 88 hhcurveto
          endchar
        </CharString>
        <CharString name="five.dnom">
          -79 -12 149 callgsubr
          hstem
          226 60 vstem
          135 -12 -89 callsubr
          endchar
        </CharString>
        <CharString name="five.numr">
          -79 254 149 callgsubr
          hstem
          276 60 vstem
          185 254 -89 callsubr
          endchar
        </CharString>
        <CharString name="five.onum">
          -2 callsubr
        </CharString>
        <CharString name="five.pnum">
          31 223 callsubr
          345 77 vstem
          182 25 callsubr
        </CharString>
        <CharString name="five.subs">
          -79 -189 149 callgsubr
          hstem
          189 60 vstem
          98 -189 -89 callsubr
          endchar
        </CharString>
        <CharString name="five.sups">
          -79 383 149 callgsubr
          hstem
          303 60 vstem
          212 383 -89 callsubr
          endchar
        </CharString>
        <CharString name="five.tnum">
          -2 callsubr
        </CharString>
        <CharString name="fiveeighths">
          357 -12 44 226 49 50 45 77 44 86 51 hstemhm
          272 60 113 95 callsubr
          226 callsubr
          181 258 -89 callsubr
          -40 98 callgsubr
          -59 105 callgsubr
          hintmask 1111110101000000
          -44 callgsubr
          226 callsubr
          39 callsubr
          hintmask 1111110101000000
          -48 callgsubr
          226 callsubr
          -54 callgsubr
        </CharString>
        <CharString name="fl">
          100 -12 64 -43 -21 33 160 callsubr
          -12 -20 hstemhm
          326 48 callsubr
          hintmask 00111001
          -19 callgsubr
          hintmask 01011001
          263 -436 rmoveto
          21 14 3 5 13 hvcurveto
          hintmask 10011001
          -1 59 rlineto
          hintmask 10010110
          -35 callsubr
          hintmask 01011001
          145 callsubr
        </CharString>
        <CharString name="fl.a">
          90 424 82 callgsubr
          176 62 hstemhm
          43 489 hintmask 01110000
          -55 callgsubr
          hintmask 10110000
          -16 -81 -65 -5 rlineto
          hintmask 01110000
          151 callsubr
          185 -424 rmoveto
          69 callsubr
          endchar
        </CharString>
        <CharString name="four">
          50 183 callgsubr
          15 446 hintmask 11011000
          331 35 callsubr
        </CharString>
        <CharString name="four.c">
          228 callsubr
          186 61 327 82 0 -20 hstemhm
          20 444 hintmask 11011000
          331 hmoveto
          37 186 rlineto
          83 hlineto
          13 61 rlineto
          -84 hlineto
          82 409 rlineto
          -84 hlineto
          -349 -419 -9 -51 rlineto
          277 hlineto
          -38 -186 rlineto
          -145 247 rmoveto
          184 221 rlineto
          hintmask 11101000
          26 33 24 36 27 37 rrcurveto
          4 hlineto
          -10 -45 -11 -45 -8 -38 -41 -199 rcurveline
          endchar
        </CharString>
        <CharString name="four.dnom">
          -76 106 43 184 57 hstem
          9 295 vstem
          78 149 -56 callgsubr
          endchar
        </CharString>
        <CharString name="four.numr">
          -76 372 43 184 57 hstem
          59 295 vstem
          128 415 -56 callgsubr
          endchar
        </CharString>
        <CharString name="four.onum">
          7 callsubr
        </CharString>
        <CharString name="four.pnum">
          55 183 callgsubr
          26 446 hintmask 11011000
          342 35 callsubr
        </CharString>
        <CharString name="four.subs">
          -76 -71 43 184 57 hstem
          -28 295 vstem
          41 -28 -56 callgsubr
          endchar
        </CharString>
        <CharString name="four.sups">
          -76 501 43 184 57 hstem
          86 295 vstem
          155 544 -56 callgsubr
          endchar
        </CharString>
        <CharString name="four.tnum">
          7 callsubr
        </CharString>
        <CharString name="fraction">
          52 callsubr
        </CharString>
        <CharString name="g">
          126 callgsubr
          hstemhm
          39 79 hintmask 11101000
          -22 callsubr
          hintmask 11011000
          99 callgsubr
          hintmask 11101000
          -99 callgsubr
          endchar
        </CharString>
        <CharString name="g.a">
          -64 callsubr
          endchar
        </CharString>
        <CharString name="g.supa">
          -106 248 40 206 39 138 45 -34 42 hstemhm
          49 51 6 49 -43 53 108 57 -36 50 hintmask 1110001010000000
          112 587 rmoveto
          -31 12 -23 20 -17 vhcurveto
          -4 vlineto
          hintmask 1110010010000000
          -24 -16 -14 -18 -25 vvcurveto
          -18 7 -16 11 -7 vhcurveto
          -4 vlineto
          hintmask 1110101100000000
          -36 -16 -39 -26 -42 vvcurveto
          -63 67 -13 47 83 84 36 72 43 -26 19 -89 12 vhcurveto
          hintmask 1110010010000000
          -51 8 -9 7 22 vvcurveto
          12 10 12 11 8 vhcurveto
          -4 8 11 -1 13 hhcurveto
          80 56 58 76 14 -3 17 -8 12 hvcurveto
          59 hlineto
          8 45 rlineto
          -110 hlineto
          6 -13 -13 2 -17 hhcurveto
          hintmask 1110001010000000
          -76 -59 -60 -77 hvcurveto
          hintmask 1110101100000000
          46 -194 rmoveto
          17 -4 11 -3 12 -1 rrcurveto
          51 -5 24 -10 -27 vvcurveto
          -31 -45 -24 -60 -39 -29 13 32 26 28 22 30 12 vhcurveto
          hintmask 1101001010000000
          87 289 rmoveto
          32 17 -22 -35 -46 -34 -46 -46 -32 -17 21 36 46 34 46 46 hvcurveto
          endchar
        </CharString>
        <CharString name="g.sups">
          -76 244 47 108 48 229 48 hstem
          88 58 vstem
          180 244 rmoveto
          82 56 54 88 18 hvcurveto
          65 330 rlineto
          -46 hlineto
          -13 -39 1 callsubr
          32 -16 -28 15 -30 hhcurveto
          -92 -84 -96 -117 -71 36 -41 58 40 36 17 26 32 20 callgsubr
          -13 -54 rlineto
          -59 -15 -34 -38 -50 hhcurveto
          -34 -35 17 21 -26 hvcurveto
          -26 -40 rlineto
          -30 36 44 -15 39 hhcurveto
          21 203 rmoveto
          -32 -23 23 49 80 59 77 60 22 22 -12 -33 17 hvcurveto
          -26 -134 rlineto
          -32 -30 -38 -18 -31 hhcurveto
          endchar
        </CharString>
        <CharString name="gbreve">
          126 callgsubr
          105 55 96 -20 hstemhm
          39 79 73 54 hintmask 11101110
          -22 callsubr
          hintmask 11011110
          99 callgsubr
          hintmask 11101110
          -99 callgsubr
          hintmask 11101111
          115 502 -84 callgsubr
        </CharString>
        <CharString name="gbreve.a">
          3 callsubr
          73 55 hstemhm
          -15 68 18 66 -58 71 14 54 104 76 -44 68 hintmask 1110110101000000
          -40 callgsubr
          hintmask 1110101000100000
          -80 callsubr
          hintmask 1101100100100000
          -43 callgsubr
          hintmask 1110101000100000
          -9 callsubr
          hintmask 1110110100100000
          108 callsubr
          hintmask 1110110101000000
          143 callgsubr
          hintmask 1101100100100000
          -47 callsubr
          hintmask 1110110111000000
          -72 callsubr
          123 742 -84 callgsubr
        </CharString>
        <CharString name="gcaron">
          126 callgsubr
          109 128 callgsubr
          39 79 hintmask 11101011
          -22 callsubr
          hintmask 11011011
          99 callgsubr
          hintmask 11101011
          -99 callgsubr
          78 506 rmoveto
          82 hlineto
          hintmask 11101101
          -5 callgsubr
          hintmask 11101011
          10 callsubr
        </CharString>
        <CharString name="gcaron.a">
          3 callsubr
          77 169 callgsubr
          hintmask 1110010110000000
          -40 callgsubr
          hintmask 1110001001000000
          -80 callsubr
          hintmask 1101000101000000
          -43 callgsubr
          hintmask 1110001001000000
          -9 callsubr
          hintmask 1110010101000000
          108 callsubr
          hintmask 1110010110000000
          143 callgsubr
          hintmask 1101000101000000
          -47 callsubr
          hintmask 1110110110000000
          -72 callsubr
          86 746 rmoveto
          82 hlineto
          -5 callgsubr
          10 callsubr
        </CharString>
        <CharString name="gcircumflex">
          126 callgsubr
          218 56 hstemhm
          39 79 hintmask 11101100
          -22 callsubr
          hintmask 11011100
          99 callgsubr
          hintmask 11101100
          -99 callgsubr
          -4 499 -74 callgsubr
        </CharString>
        <CharString name="gcircumflex.a">
          3 callsubr
          186 169 callgsubr
          hintmask 1110010110000000
          -40 callgsubr
          hintmask 1110001001000000
          -80 callsubr
          hintmask 1101000101000000
          -43 callgsubr
          hintmask 1110001001000000
          -9 callsubr
          hintmask 1110010101000000
          108 callsubr
          hintmask 1110010110000000
          143 callgsubr
          hintmask 1101000101000000
          -47 callsubr
          hintmask 1110110110000000
          -72 callsubr
          4 739 -74 callgsubr
        </CharString>
        <CharString name="gdotaccent">
          126 callgsubr
          121 103 hstemhm
          39 79 162 107 hintmask 11100100
          -22 callsubr
          hintmask 11010100
          99 callgsubr
          hintmask 11100100
          -99 callgsubr
          hintmask 11101110
          124 518 -103 callsubr
        </CharString>
        <CharString name="gdotaccent.a">
          3 callsubr
          89 103 hstemhm
          -15 68 18 66 -58 71 103 107 -38 76 -44 68 hintmask 1110010101000000
          -40 callgsubr
          hintmask 1110001000100000
          -80 callsubr
          hintmask 1101000100100000
          -43 callgsubr
          hintmask 1110001000100000
          -9 callsubr
          hintmask 1110010100100000
          108 callsubr
          hintmask 1110010101000000
          143 callgsubr
          hintmask 1101000100100000
          -47 callsubr
          hintmask 1110010101000000
          -72 callsubr
          hintmask 1110100110000000
          132 758 -103 callsubr
        </CharString>
        <CharString name="germandbls">
          125 -12 60 -27 -21 662 62 hstemhm
          283 75 58 74 -57 72 hintmask 10110100
          339 -12 rmoveto
          95 71 70 87 hvcurveto
          123 -147 16 77 vvcurveto
          hintmask 01111000
          77 132 29 125 vvcurveto
          89 -64 43 -80 -113 -74 -90 -109 -23 vhcurveto
          -105 -525 rlineto
          76 hlineto
          102 507 rlineto
          85 18 48 70 68 hhcurveto
          52 21 -33 -45 hvcurveto
          -106 -133 -24 -105 vvcurveto
          hintmask 10110100
          -102 150 -17 -95 vvcurveto
          -51 -42 -36 -52 -41 -33 16 25 -31 vhcurveto
          -35 -51 rlineto
          -33 41 50 -17 49 hhcurveto
          endchar
        </CharString>
        <CharString name="grave">
          87 208 callgsubr
          233 180 vstem
          365 570 -28 callsubr
        </CharString>
        <CharString name="greater">
          50 135 391 hstem
          376 84 vstem
          48 135 rmoveto
          412 166 rlineto
          58 vlineto
          -412 167 rlineto
          -65 vlineto
          204 -80 124 -48 rlineto
          -4 vlineto
          -124 -49 -204 -79 rlineto
          endchar
        </CharString>
        <CharString name="greaterequal">
          50 0 58 hstem
          377 83 vstem
          48 155 rmoveto
          412 153 212 callgsubr
          153 rlineto
          -65 vlineto
          203 -75 126 -44 rlineto
          -4 vlineto
          -126 -43 -203 -74 rlineto
          -221 vmoveto
          175 callsubr
        </CharString>
        <CharString name="guillemotleft">
          -18 214 callsubr
          40 355 vstem
          143 67 79 callsubr
          263 -158 79 callsubr
          endchar
        </CharString>
        <CharString name="guillemotright">
          -18 214 callsubr
          23 355 vstem
          51 67 76 callgsubr
          188 -29 76 callgsubr
          endchar
        </CharString>
        <CharString name="guilsinglleft">
          -178 214 callsubr
          40 195 vstem
          143 67 79 callsubr
          endchar
        </CharString>
        <CharString name="guilsinglright">
          -178 214 callsubr
          23 195 vstem
          51 67 76 callgsubr
          endchar
        </CharString>
        <CharString name="h">
          93 21 -21 432 66 214 -20 hstem
          394 78 vstem
          -98 callgsubr
          -59 -53 -35 -47 -55 vhcurveto
          -4 hlineto
          16 61 48 235 -15 callgsubr
          endchar
        </CharString>
        <CharString name="h.sups">
          -77 675 49 hstem
          324 59 vstem
          201 callgsubr
          39 38 30 19 29 hhcurveto
          27 15 -16 -32 -10 -2 155 callsubr
          13 3 15 15 vvcurveto
          52 -21 30 -56 -40 -35 -22 -29 -34 vhcurveto
          -4 hlineto
          17 72 24 118 rlineto
          -58 hlineto
          endchar
        </CharString>
        <CharString name="hbar">
          93 21 -21 412 66 207 callgsubr
          390 78 hintmask 11001100
          31 hmoveto
          76 hlineto
          65 324 rlineto
          61 4 callsubr
          22 -53 callgsubr
          -56 -280 rlineto
          76 hlineto
          58 290 -51 callsubr
          -59 -53 -35 -47 -55 vhcurveto
          -4 hlineto
          16 61 23 112 217 callsubr
          hintmask 11010100
          11 51 rlineto
          -175 hlineto
          hintmask 11001100
          19 92 -15 callgsubr
          hintmask 11100100
          -18 -92 -72 -4 rlineto
          hintmask 11001100
          -9 -47 rlineto
          70 hlineto
          endchar
        </CharString>
        <CharString name="hcircumflex">
          93 21 -21 432 66 214 -20 141 45 hstem
          394 78 vstem
          -98 callgsubr
          -59 -53 -35 -47 -55 vhcurveto
          -4 hlineto
          16 61 48 235 -15 callgsubr
          113 27 -71 callsubr
        </CharString>
        <CharString name="hungarumlaut">
          87 571 188 hstem
          239 320 vstem
          280 93 callsubr
        </CharString>
        <CharString name="hyphen">
          -131 222 59 hstem
          35 231 vstem
          35 222 rmoveto
          218 hlineto
          13 59 rlineto
          -219 hlineto
          endchar
        </CharString>
        <CharString name="hyphen.sups">
          -197 549 45 hstem
          108 152.5 vstem
          105 549 rmoveto
          153 hlineto
          5 45 rlineto
          -152 hlineto
          endchar
        </CharString>
        <CharString name="i">
          121 callgsubr
          121 103 hstem
          143 90 callgsubr
          endchar
        </CharString>
        <CharString name="i.sups">
          -267 779 75 hstem
          157 77 188 callsubr
          63 321 rlineto
          -58 hlineto
          46 63 133 callsubr
        </CharString>
        <CharString name="iacute">
          121 callgsubr
          251 -20 hstem
          31 309 39 callgsubr
          32 93 -81 callgsubr
        </CharString>
        <CharString name="icircumflex">
          121 callgsubr
          218 56 hstem
          31 312 39 callgsubr
          -64 82 -74 callgsubr
        </CharString>
        <CharString name="idieresis">
          121 callgsubr
          123 95 hstem
          59 92 94 91 39 callgsubr
          -29 103 -45 callsubr
        </CharString>
        <CharString name="igrave">
          121 callgsubr
          hstem
          31 238 39 callgsubr
          93 84 -28 callsubr
        </CharString>
        <CharString name="imacron">
          121 callgsubr
          135 54 hstem
          31 296 39 callgsubr
          -65 115 -72 callgsubr
        </CharString>
        <CharString name="infinity">
          322 152 71 -54 58 194 70 -43 58 hstemhm
          32 60 556 60 hintmask 10011100
          540 152 rmoveto
          96 72 76 103 107 -72 68 -97 -79 -52 -53 -67 -50 hvcurveto
          -4 hlineto
          hintmask 01101100
          47 -35 -53 58 -79 hhcurveto
          -90 -65 -67 -95 -92 64 -68 84 77 51 58 46 33 20 callgsubr
          hintmask 10011100
          -76 58 56 -45 81 hhcurveto
          hintmask 01101100
          -353 75 rmoveto
          -53 -42 42 57 58 39 37 55 47 44 -41 -57 39 hvcurveto
          -52 -33 -44 -44 -52 hhcurveto
          hintmask 10011100
          355 -4 rmoveto
          -59 -47 40 74 -53 hvcurveto
          68 47 50 43 56 hhcurveto
          68 44 -48 -65 -62 -41 -50 -65 hvcurveto
          endchar
        </CharString>
        <CharString name="integral">
          -109 -158 60 827 60 hstem
          -26 427 vstem
          18 -158 rmoveto
          109 38 96 131 27 hvcurveto
          28 147 2 199 29 147 rrcurveto
          102 19 25 65 54 hhcurveto
          16 13 -2 -2 7 hvcurveto
          16 58 rlineto
          4 -9 -18 2 -20 hhcurveto
          -110 -38 -99 -129 -25 hvcurveto
          -29 -146 0 -201 -30 -145 rrcurveto
          -105 -20 -22 -62 -57 hhcurveto
          -14 -11 2 2 -8 hvcurveto
          -16 -57 rlineto
          -5 9 16 -2 19 hhcurveto
          endchar
        </CharString>
        <CharString name="iogonek">
          -193 -206 51 176 19 callsubr
          121 103 hstem
          -42 61 123 107 44 callsubr
          158 793 -103 callsubr
        </CharString>
        <CharString name="iogonek.x">
          -193 -206 51 hstem
          -42 61 44 callsubr
          endchar
        </CharString>
        <CharString name="itilde">
          121 callgsubr
          111 147 callgsubr
          22 363 hintmask 11010010
          4 callgsubr
          hintmask 11101010
          138 91 33 callgsubr
          hintmask 11100110
          -52 callgsubr
          hintmask 11010010
          -61 callgsubr
          hintmask 11101010
          52 callgsubr
        </CharString>
        <CharString name="j">
          198 callsubr
          121 103 hstemhm
          140 107 hintmask 10111000
          34 callsubr
          hintmask 01111000
          -25 -57 rlineto
          hintmask 10111000
          70 callsubr
          238 804 -103 callsubr
        </CharString>
        <CharString name="j.sups">
          -266 250 47 482 75 hstem
          157 77 vstem
          31 250 rmoveto
          59 30 40 62 12 hvcurveto
          72 364 rlineto
          -58 hlineto
          -71 -361 rlineto
          -37 -7 -13 -21 -26 hhcurveto
          -14 -9 4 4 -9 hvcurveto
          -20 -41 rlineto
          -9 18 17 -5 19 hhcurveto
          161 529 133 callsubr
        </CharString>
        <CharString name="jcircumflex">
          198 callsubr
          218 56 hstemhm
          -124 464 hintmask 10111000
          34 callsubr
          hintmask 01111000
          -25 -57 rlineto
          hintmask 10111000
          70 callsubr
          110 785 -74 callgsubr
        </CharString>
        <CharString name="k">
          46 152 callgsubr
          246 -20 hstem
          31 462 vstem
          -38 callgsubr
          96 483 -15 callgsubr
          endchar
        </CharString>
        <CharString name="k.sups">
          -105 395 468 hstem
          83 314 188 callsubr
          16 83 72 71 62 -154 rlineto
          57 hlineto
          -79 187 128 134 rlineto
          -63 hlineto
          -159 -161 1 callsubr
          63 308 rlineto
          -58 hlineto
          endchar
        </CharString>
        <CharString name="kgreenlandic">
          46 152 callgsubr
          hstem
          31 462 vstem
          -38 callgsubr
          50 257 -15 callgsubr
          endchar
        </CharString>
        <CharString name="l">
          9 callgsubr
          endchar
        </CharString>
        <CharString name="l.a">
          -192 0 712 hstem
          31 219 68 callsubr
          endchar
        </CharString>
        <CharString name="l.supa">
          -266 395 468 hstem
          83 151 188 callsubr
          93 468 rlineto
          -58 hlineto
          endchar
        </CharString>
        <CharString name="l.sups">
          -265 387 48 hstemhm
          93 58 -58 84.5 hintmask 10100000
          140 387 rmoveto
          15 13 2 4 10 hvcurveto
          -1 45 rlineto
          hintmask 11000000
          -3 -6 -4 0 -3 hhcurveto
          -7 -6 3 9 4 1 3 1 7 hvcurveto
          81 402 rlineto
          hintmask 10100000
          -58 hlineto
          -78 -395 rlineto
          -3 -12 -2 -11 -11 vvcurveto
          -29 15 -18 32 vhcurveto
          endchar
        </CharString>
        <CharString name="lacute">
          9 callgsubr
          82 761 -78 callsubr
        </CharString>
        <CharString name="lacute.a">
          -192 0 915 hstem
          31 332 68 callsubr
          18 43 -78 callsubr
        </CharString>
        <CharString name="lcaron">
          -187 -12 192 callsubr
          552 164 hstemhm
          44 48 callsubr
          hintmask 01010100
          40 callgsubr
          hintmask 10010100
          -1 59 rlineto
          hintmask 10011000
          -35 callsubr
          hintmask 01010100
          -33 callsubr
          hintmask 00110100
          158 560 65 callsubr
        </CharString>
        <CharString name="lcaron.a">
          -187 548 164 hstem
          31 330 68 callsubr
          94 -164 65 callsubr
        </CharString>
        <CharString name="ldot">
          -99 -12 192 callsubr
          275 120 321 -20 hstemhm
          44 48 callsubr
          87.5 113 hintmask 01011011
          40 callgsubr
          hintmask 10011011
          -1 59 rlineto
          hintmask 10011101
          -35 callsubr
          hintmask 01011011
          -33 callsubr
          hintmask 00111011
          182 283 rmoveto
          -57 callgsubr
          endchar
        </CharString>
        <CharString name="ldot.a">
          -99 271 120 hstemhm
          31 326 -113 113 hintmask 11000000
          60 callsubr
          hintmask 10100000
          118 -441 rmoveto
          -57 callgsubr
          endchar
        </CharString>
        <CharString name="less">
          50 135 391 hstem
          46 84 vstem
          458 135 rmoveto
          66 vlineto
          -203 79 -125 49 rlineto
          4 vlineto
          125 48 203 80 212 callgsubr
          -167 rlineto
          -58 vlineto
          endchar
        </CharString>
        <CharString name="lessequal">
          50 0 58 hstem
          46 84 vstem
          458 155 rmoveto
          66 vlineto
          -202 74 -126 43 rlineto
          4 vlineto
          126 44 202 75 212 callgsubr
          -153 rlineto
          -65 vlineto
          2 -308 rmoveto
          175 callsubr
        </CharString>
        <CharString name="lira">
          50 0 66 173 45 63 42 -42 45 194 64 hstemhm
          146 72 -66 76 -73 71 hintmask 11011100
          4 hmoveto
          382 hlineto
          12 66 rlineto
          hintmask 11011001
          -259 4 hlineto
          50 48 29 52 8 69 rrcurveto
          128 hlineto
          9 45 rlineto
          hintmask 11011010
          -135 hlineto
          19 -2 22 -2 22 vhcurveto
          152 213 callgsubr
          hintmask 11011100
          -167 hlineto
          11 -1 11 10 112 callsubr
          hvcurveto
          hintmask 11101100
          -12 1 -13 1 -13 vhcurveto
          hintmask 11101010
          -69 -4 rlineto
          hintmask 11011010
          -10 -40 rlineto
          83 hlineto
          2 -22 2 -22 1 -19 rrcurveto
          -3 hlineto
          -97 -5 -10 -40 rlineto
          hintmask 11011001
          108 hlineto
          -10 -82 -48 -69 -84 -42 rrcurveto
          endchar
        </CharString>
        <CharString name="logicalnot">
          50 302 57 hstem
          398 60 vstem
          398 103 rmoveto
          60 256 -410 -57 350 hlineto
          endchar
        </CharString>
        <CharString name="lozenge">
          69 -10 64 552 64 hstem
          70 387 vstem
          228 -10 rmoveto
          71 hlineto
          158 340 -158 340 rlineto
          -71 hlineto
          -158 -340 rlineto
          191 -276 rmoveto
          -60 133 -63 143 63 141 60 135 rlineto
          4 hlineto
          61 -135 63 -141 -63 -143 -61 -133 rlineto
          endchar
        </CharString>
        <CharString name="lslash">
          -155 -12 64 -43 -21 724 -20 hstemhm
          59 48 callsubr
          hintmask 01101000
          124 -12 rmoveto
          21 14 3 5 13 hvcurveto
          hintmask 10101000
          -1 59 rlineto
          hintmask 10110000
          -48 callsubr
          57 284 116 62 -20 50 -83 -47 55 274 -15 callgsubr
          hintmask 01101000
          226 callgsubr
          38 -48 -243 166 callgsubr
        </CharString>
        <CharString name="lslash.a">
          -162 0 712 hstem
          29 284 vstem
          46 hmoveto
          76 hlineto
          75 373 116 62 -20 50 -83 -47 55 274 -15 callgsubr
          226 callgsubr
          37 rlineto
          endchar
        </CharString>
        <CharString name="m">
          369 96 callgsubr
          hstemhm
          383 76 209 78 hintmask 11011000
          -57 callsubr
          hintmask 10111000
          89 callgsubr
          endchar
        </CharString>
        <CharString name="m.sups">
          106 670 46 -41 49 hstemhm
          319 56 132 59 hintmask 01110000
          201 callgsubr
          37 34 34 21 23 hhcurveto
          29 14 -17 -32 -10 -3 -10 -3 -15 hvcurveto
          -39 -196 rlineto
          57 hlineto
          44 222 rlineto
          37 33 35 21 23 hhcurveto
          28 13 -17 -30 -11 -2 -11 -3 -15 hvcurveto
          -39 -196 rlineto
          57 hlineto
          40 203 rlineto
          4 17 2 15 12 vvcurveto
          52 -21 30 -55 -38 -38 -25 -35 -39 vhcurveto
          33 -6 -17 27 -51 hhcurveto
          -38 -37 -24 -30 -32 hvcurveto
          -4 hlineto
          hintmask 10110000
          3 46 rlineto
          -47 hlineto
          endchar
        </CharString>
        <CharString name="macron">
          87 601 54 hstem
          207 264 vstem
          207 601 -72 callgsubr
        </CharString>
        <CharString name="minus">
          50 302 57 210 callgsubr
          48 302 rmoveto
          178 callsubr
          endchar
        </CharString>
        <CharString name="minus.subs">
          -77 -11 51 hstem
          -29 307 vstem
          -29 -11 rmoveto
          148 callsubr
          endchar
        </CharString>
        <CharString name="minus.sups">
          -77 568 51 hstem
          85 307 vstem
          85 568 rmoveto
          148 callsubr
          endchar
        </CharString>
        <CharString name="mu">
          96 -9 63 hstem
          -10 503 vstem
          -10 -191 rmoveto
          76 hlineto
          29 150 13 83 rlineto
          -38 14 33 -13 38 hhcurveto
          50 48 36 47 89 callsubr
          121 callsubr
          96 486 rlineto
          -75 hlineto
          -69 -344 rlineto
          -61 -60 -46 -94 callsubr
          endchar
        </CharString>
        <CharString name="multiply">
          50 135 391 hstem
          65 377 vstem
          105 135 rmoveto
          148 156 148 -156 41 41 -149 155 149 155 -41 40 -148 -155 -148 155 -40 -40 148 -155 -148 -155 rlineto
          endchar
        </CharString>
        <CharString name="n">
          95 96 callgsubr
          hstemhm
          394 78 hintmask 11010000
          -82 callgsubr
          hintmask 10110000
          89 callgsubr
          endchar
        </CharString>
        <CharString name="n.sups">
          -75 670 46 -41 49 hstemhm
          323 60 hintmask 01100000
          201 callgsubr
          39 38 30 19 29 hhcurveto
          27 14 -16 -32 -10 -1 155 callsubr
          16 3 12 15 vvcurveto
          52 -21 30 -56 -41 -36 -24 -30 -35 vhcurveto
          -4 hlineto
          hintmask 10100000
          3 46 rlineto
          -47 hlineto
          endchar
        </CharString>
        <CharString name="nacute">
          95 96 callgsubr
          251 -20 hstemhm
          394 78 hintmask 11011000
          -82 callgsubr
          hintmask 10111000
          89 callgsubr
          192 93 -81 callgsubr
        </CharString>
        <CharString name="napostrophe">
          312 96 callgsubr
          32 -20 120 102 hstemhm
          207 53 350 78 hintmask 11001110
          127 443 rmoveto
          75 32 58 65 92 vvcurveto
          43 -22 25 -31 -33 -22 -27 -30 -29 21 -16 29 148 callgsubr
          hintmask 10011110
          -36 -34 -51 -62 -31 vhcurveto
          136 -480 rmoveto
          76 hlineto
          hintmask 11001110
          22 callsubr
          4 callsubr
          68 callgsubr
          62 310 -51 callsubr
          -61 -54 -37 -48 -54 vhcurveto
          -4 hlineto
          hintmask 10101110
          89 callgsubr
          endchar
        </CharString>
        <CharString name="ncaron">
          95 96 callgsubr
          109 128 callgsubr
          394 78 hintmask 11010110
          -82 callgsubr
          hintmask 10111010
          89 callgsubr
          178 89 rmoveto
          82 hlineto
          -5 callgsubr
          hintmask 11010110
          10 callsubr
        </CharString>
        <CharString name="nine">
          -18 callgsubr
        </CharString>
        <CharString name="nine.c">
          50 -12 64 206 57 293 60 hstem
          68 72 247 72 vstem
          140 444 rmoveto
          82 61 82 77 67 42 -62 -91 -20 -1 -20 -1 -20 vhcurveto
          -62 -51 -55 -18 -31 hhcurveto
          -71 -37 50 79 hvcurveto
          17 -456 rmoveto
          173 129 189 275 126 -67 90 -110 -121 -93 -109 -126 -109 64 -66 98 43 61 24 48 43 hvcurveto
          -172 -28 -87 -106 -100 hhcurveto
          -46 -32 20 38 -23 hvcurveto
          -52 -41 rlineto
          -44 28 47 -37 73 hhcurveto
          endchar
        </CharString>
        <CharString name="nine.dnom">
          -77 -12 138 callsubr
          hstem
          40 56 151 57 vstem
          96 259 -79 callsubr
        </CharString>
        <CharString name="nine.numr">
          -77 254 138 callsubr
          hstem
          90 56 151 57 vstem
          146 525 -79 callsubr
        </CharString>
        <CharString name="nine.onum">
          -25 callgsubr
        </CharString>
        <CharString name="nine.pnum">
          -18 callgsubr
        </CharString>
        <CharString name="nine.subs">
          -77 -189 138 callsubr
          hstem
          3 56 151 57 vstem
          59 82 -79 callsubr
        </CharString>
        <CharString name="nine.sups">
          -77 383 138 callsubr
          hstem
          117 56 151 57 vstem
          173 654 -79 callsubr
        </CharString>
        <CharString name="nine.tnum">
          -25 callgsubr
        </CharString>
        <CharString name="notequal">
          50 194 58 156 58 210 callgsubr
          71 68 rmoveto
          55 hlineto
          78 126 rlineto
          254 58 -224 hlineto
          94 156 rlineto
          130 58 -100 hlineto
          77 126 rlineto
          -55 hlineto
          -78 -126 rlineto
          -254 -58 224 hlineto
          -94 -156 rlineto
          -130 -58 100 hlineto
          endchar
        </CharString>
        <CharString name="ntilde">
          95 96 callgsubr
          111 147 callgsubr
          394 78 hintmask 11001001
          -82 callgsubr
          hintmask 10110101
          89 callgsubr
          298 91 33 callgsubr
          hintmask 11010011
          -52 callgsubr
          hintmask 11001001
          -61 callgsubr
          hintmask 10110101
          52 callgsubr
        </CharString>
        <CharString name="numbersign">
          49 21 -21 205 55 150 55 185 -20 hstem
          24 467 vstem
          38 hmoveto
          52 hlineto
          64 205 rlineto
          126 hlineto
          -65 -205 rlineto
          52 hlineto
          64 205 rlineto
          85 hlineto
          14 55 rlineto
          -81 hlineto
          46 150 rlineto
          82 hlineto
          14 55 rlineto
          -79 223 callgsubr
          -125 223 callgsubr
          -84 hlineto
          -14 -55 rlineto
          80 hlineto
          -46 -150 rlineto
          -82 hlineto
          -13 -55 rlineto
          79 hlineto
          68 55 rmoveto
          46 150 rlineto
          127 hlineto
          -46 -150 rlineto
          endchar
        </CharString>
        <CharString name="o">
          -39 callgsubr
          endchar
        </CharString>
        <CharString name="o.sups">
          38 callgsubr
        </CharString>
        <CharString name="oacute">
          71 callgsubr
          219 -20 37 callgsubr
          84 527 -81 callgsubr
        </CharString>
        <CharString name="ocircumflex">
          71 callgsubr
          186 56 37 callgsubr
          -12 111 callsubr
          endchar
        </CharString>
        <CharString name="odieresis">
          71 callgsubr
          91 95 hstemhm
          39 77 87 92 94 91 -83 78 hintmask 11111010
          -104 callsubr
          23 537 -24 callsubr
          hintmask 11111100
          125 callgsubr
        </CharString>
        <CharString name="oe">
          382 -12 61 -61 64 177 52 154 63 -61 61 hstemhm
          39 77 278 75 245 65 hintmask 01110101
          208 -12 rmoveto
          78 76 50 83 45 hvcurveto
          -87 19 60 -46 81 hhcurveto
          59 53 25 27 37 hvcurveto
          hintmask 10110101
          -29 51 rlineto
          -23 -31 -40 -19 -38 hhcurveto
          -74 -58 51 129 15 hvcurveto
          301 hlineto
          7 18 10 37 38 vvcurveto
          100 -41 76 -110 -66 -72 -46 -80 -43 vhcurveto
          81 -19 -50 45 -81 hhcurveto
          -130 -128 -131 -184 hvcurveto
          hintmask 01110101
          -121 67 -74 102 vhcurveto
          hintmask 01110111
          12 64 rmoveto
          -67 -37 48 88 136 88 111 86 67 37 -49 -88 13 callsubr
          -87 hvcurveto
          249 229 rmoveto
          hintmask 01101101
          94 23 63 62 65 159 callsubr
          -15 -4 -15 hvcurveto
          endchar
        </CharString>
        <CharString name="ogonek">
          87 -206 51 hstem
          110 61 vstem
          185 2 callgsubr
          40 33 43 55 38 hvcurveto
          -53 hlineto
          -42 -29 -54 -55 -58 vvcurveto
          -44 31 -23 44 vhcurveto
          endchar
        </CharString>
        <CharString name="ograve">
          -39 callgsubr
          145 518 -28 callsubr
        </CharString>
        <CharString name="ohorn">
          87 7 callgsubr
          170 callsubr
          hintmask 11110000
          87 callsubr
          hintmask 11111000
          -65 callgsubr
          hintmask 11110000
          -121 68 -74 105 vhcurveto
          -96 callgsubr
          endchar
        </CharString>
        <CharString name="ohungarumlaut">
          -39 callgsubr
          60 519 141 callsubr
          -117 -163 rlineto
          192 -25 141 callsubr
          -118 -163 rlineto
          endchar
        </CharString>
        <CharString name="omacron">
          71 callgsubr
          103 54 37 callgsubr
          -13 549 -72 callgsubr
        </CharString>
        <CharString name="one">
          50 0 64 478 50 -50 96 94 callgsubr
          116 574 126 callsubr
          -57 190 callgsubr
          -50 rlineto
          113 hlineto
          -96 -478 207 callsubr
        </CharString>
        <CharString name="one.c">
          50 0 64 497 49 -49 95 94 callgsubr
          120 592 rlineto
          -59 hlineto
          hintmask 11010000
          -37 -22 -46 -16 -57 190 callgsubr
          -49 rlineto
          113 hlineto
          -100 -497 207 callsubr
        </CharString>
        <CharString name="one.dnom">
          -74 312 164 callgsubr
          92 214 callgsubr
          120 hmoveto
          29 callsubr
          hintmask 10100000
          32 callsubr
          hintmask 01100000
          101 callsubr
          endchar
        </CharString>
        <CharString name="one.numr">
          -74 578 164 callgsubr
          142 214 callgsubr
          170 266 50 callsubr
        </CharString>
        <CharString name="one.onum">
          -88 21 -21 478 50 -50 96 hstemhm
          76 210 hintmask 10110000
          93 hmoveto
          77 hlineto
          116 574 130 callsubr
          endchar
        </CharString>
        <CharString name="one.pnum">
          -90 21 -21 542 50 -50 96 hstemhm
          95 210 hintmask 10110000
          100 hmoveto
          77 hlineto
          128 638 130 callsubr
          endchar
        </CharString>
        <CharString name="one.subs">
          -74 135 164 callgsubr
          55 214 callgsubr
          83 -177 50 callsubr
        </CharString>
        <CharString name="one.sups">
          -74 707 164 callgsubr
          169 214 callgsubr
          197 395 50 callsubr
        </CharString>
        <CharString name="one.tnum">
          50 0 64 414 50 -50 96 94 callgsubr
          103 510 130 callsubr
          -83 -414 207 callsubr
        </CharString>
        <CharString name="oneeighth">
          343 -12 44 325 45 180 164 callgsubr
          433 95 callsubr
          hintmask 11011010
          58 callsubr
          hintmask 11101010
          32 callsubr
          hintmask 11011010
          101 callsubr
          -104 69 callgsubr
          -31 105 callgsubr
          hintmask 11010101
          -44 callgsubr
          hintmask 11011010
          39 callsubr
          hintmask 11010101
          -48 callgsubr
          hintmask 11011010
          -54 callgsubr
        </CharString>
        <CharString name="onehalf">
          342 0 51 -42 -21 362 52 180 164 callgsubr
          659 61 hintmask 10101100
          58 callsubr
          hintmask 10110100
          32 callsubr
          hintmask 01101100
          101 callsubr
          -106 69 callgsubr
          hintmask 10101100
          -162 -672 rmoveto
          -77 callgsubr
          endchar
        </CharString>
        <CharString name="onequarter">
          318 225 callgsubr
          184 57 192 164 callgsubr
          119 577 hintmask 01110110
          147 60 callgsubr
          hintmask 01111010
          32 callsubr
          hintmask 01110110
          101 callsubr
          -88 69 callgsubr
          -135 -523 rmoveto
          86 100 67 84 rlineto
          4 hlineto
          -26 -108 -15 -76 rlineto
          hintmask 10010110
          -30 -149 rmoveto
          54 hlineto
          hintmask 01110110
          103 callgsubr
        </CharString>
        <CharString name="onethird">
          348 -12 142 callsubr
          180 164 callgsubr
          642 59 -37 60 hintmask 11101100
          58 callsubr
          hintmask 11110100
          32 callsubr
          hintmask 11101100
          101 callsubr
          -106 69 callgsubr
          -23 -684 18 callgsubr
          hintmask 11101010
          -85 callgsubr
          hintmask 11101100
          -60 callsubr
          endchar
        </CharString>
        <CharString name="ordfeminine">
          -76 -1 callsubr
        </CharString>
        <CharString name="ordfeminine.a">
          -25 callsubr
        </CharString>
        <CharString name="ordmasculine">
          38 callgsubr
        </CharString>
        <CharString name="oslash">
          85 -12 62 386 62 0 -20 hstemhm
          39 73 290 73 hintmask 11011000
          112 188 rmoveto
          126 84 122 99 37 28 -15 -27 18 vhcurveto
          -259 -266 rlineto
          -5 17 -2 20 23 vvcurveto
          -83 -211 rmoveto
          59 61 rlineto
          -33 31 43 -17 50 hhcurveto
          133 130 130 185 hvcurveto
          hintmask 10111000
          42 -8 36 -15 30 vhcurveto
          67 69 rlineto
          hintmask 11011000
          -30 28 -61 -63 rlineto
          35 -31 -44 18 -52 hhcurveto
          -133 -129 -131 -184 -44 9 -38 16 -30 hvcurveto
          -64 -66 rlineto
          218 45 rmoveto
          -36 -27 13 25 -18 hvcurveto
          259 265 rlineto
          4 -16 2 -19 -21 vvcurveto
          -126 -84 -121 -100 vhcurveto
          endchar
        </CharString>
        <CharString name="otilde">
          71 callgsubr
          79 147 callgsubr
          39 77 281 78 hintmask 11010011
          -104 callsubr
          hintmask 11101011
          190 525 33 callgsubr
          hintmask 11100111
          -52 callgsubr
          hintmask 11010011
          -61 callgsubr
          hintmask 11101011
          52 callgsubr
        </CharString>
        <CharString name="p">
          105 -184 -21 193 64 382 64 -12 -20 hstemhm
          417 79 hintmask 11101000
          63 callgsubr
          hintmask 11011000
          157 callsubr
          hintmask 11101000
          46 232 rlineto
          50 88 callgsubr
          hvcurveto
          hintmask 11011000
          -135 -89 -124 -97 vhcurveto
          endchar
        </CharString>
        <CharString name="p.sups">
          -71 387 47 242 48 -46 38 hstemhm
          339 58 hintmask 11010000
          56 257 rmoveto
          57 hlineto
          21 106 8 71 rlineto
          4 hlineto
          -32 16 28 -15 30 hhcurveto
          198 callgsubr
          -33 -18 -28 -33 hvcurveto
          -4 hlineto
          hintmask 10110000
          1 38 rlineto
          -47 hlineto
          hintmask 11010000
          138 -40 rmoveto
          31 24 -24 -53 -86 -61 -79 -60 -23 -20 13 168 callgsubr
          endchar
        </CharString>
        <CharString name="paragraph">
          105 656 -20 hstem
          73 450 vstem
          300 -80 rmoveto
          76 hlineto
          147 736 -15 callgsubr
          -153 -429 rmoveto
          15 hlineto
          87 429 rlineto
          -48 hlineto
          -141 -133 -81 -172 -115 101 -61 119 hvcurveto
          endchar
        </CharString>
        <CharString name="parenleft">
          -139 -176 907 hstem
          65 64 vstem
          122 -176 rmoveto
          50 19 rlineto
          -29 76 -14 113 93 vvcurveto
          210 73 192 141 179 vhcurveto
          -45 25 rlineto
          -148 -187 -85 -178 -233 vvcurveto
          -110 25 -114 32 -85 vhcurveto
          endchar
        </CharString>
        <CharString name="parenleft.dnom">
          -203 -79 228 callgsubr
          39 57 vstem
          81 -79 -19 callsubr
        </CharString>
        <CharString name="parenleft.numr">
          -203 187 228 callgsubr
          89 57 vstem
          131 187 -19 callsubr
        </CharString>
        <CharString name="parenleft.subs">
          -203 -256 228 callgsubr
          2 57 vstem
          44 -256 -19 callsubr
        </CharString>
        <CharString name="parenleft.sups">
          -203 316 228 callgsubr
          116 57 vstem
          158 316 -19 callsubr
        </CharString>
        <CharString name="parenright">
          -137 -176 907 hstem
          169 65 vstem
          1 -176 rmoveto
          147 187 86 178 234 vvcurveto
          109 -25 114 -32 85 vhcurveto
          -50 -19 rlineto
          29 -76 13 -112 -94 vvcurveto
          -209 -72 -193 -141 -178 vhcurveto
          endchar
        </CharString>
        <CharString name="parenright.dnom">
          -204 -79 228 callgsubr
          107 57 vstem
          15 -79 36 callsubr
        </CharString>
        <CharString name="parenright.numr">
          -204 187 228 callgsubr
          157 57 vstem
          65 187 36 callsubr
        </CharString>
        <CharString name="parenright.subs">
          -204 -256 228 callgsubr
          70 57 vstem
          -22 -256 36 callsubr
        </CharString>
        <CharString name="parenright.sups">
          -204 316 228 callgsubr
          184 57 vstem
          92 316 36 callsubr
        </CharString>
        <CharString name="partialdiff">
          89 -11 63 290 62 201 62 hstem
          23 72 327 74 vstem
          95 155 rmoveto
          91 62 96 96 65 41 -42 -50 26 vhcurveto
          -40 -108 -69 -89 -83 -1 rrcurveto
          -62 -35 50 53 -1 hvcurveto
          87 -166 rmoveto
          183 131 245 224 127 -59 82 -119 -53 -47 -23 -32 -41 hvcurveto
          33 -48 rlineto
          22 27 37 19 34 hhcurveto
          79 35 -63 -92 -44 -6 -47 -12 -46 hvcurveto
          54 -34 -49 37 -69 hhcurveto
          -138 -91 -134 -124 -97 71 -60 88 hvcurveto
          endchar
        </CharString>
        <CharString name="percent">
          361 197 callgsubr
          hstem
          61 172 callsubr
          81 172 callsubr
          vstem
          184 258 -92 callsubr
          -54 -320 -56 callsubr
          -49 -684 -92 callsubr
          endchar
        </CharString>
        <CharString name="period">
          -188 -12 120 hstem
          23 113 vstem
          70 -12 rmoveto
          -57 callgsubr
          endchar
        </CharString>
        <CharString name="period.dnom">
          -260 -8 92 hstem
          -3 89 vstem
          34 -8 46 callgsubr
        </CharString>
        <CharString name="period.numr">
          -260 258 92 hstem
          47 89 vstem
          84 258 46 callgsubr
        </CharString>
        <CharString name="period.subs">
          -260 -185 92 hstem
          -40 89 vstem
          -3 -185 46 callgsubr
        </CharString>
        <CharString name="period.sups">
          -260 387 92 hstem
          74 89 vstem
          111 387 46 callgsubr
        </CharString>
        <CharString name="periodcentered">
          -188 268 120 hstem
          79 113 vstem
          126 268 rmoveto
          -57 callgsubr
          endchar
        </CharString>
        <CharString name="perthousand">
          714 197 callgsubr
          hstemhm
          61 172 callsubr
          81 172 callsubr
          49 172 callsubr
          hintmask 0101110000000000
          184 258 -92 callsubr
          hintmask 1000001000000000
          -54 -320 -56 callsubr
          hintmask 1010001100000000
          -49 -684 -92 callsubr
          hintmask 1010000011000000
          349 -50 -92 callsubr
          endchar
        </CharString>
        <CharString name="peseta">
          228 callsubr
          250 52 119 50.5 -50.5 53 111 53 hstemhm
          377 72 hintmask 11011100
          30 hmoveto
          74 hlineto
          50 250 rlineto
          40 hlineto
          119 101 55 116 28 hvcurveto
          56 hlineto
          10 53 rlineto
          -59 hlineto
          4 0 5 5 vvcurveto
          104 -72 46 -104 vhcurveto
          -115 hlineto
          hintmask 11101100
          -33 -164 -73 -5 rlineto
          hintmask 11011100
          -9 -48 rlineto
          71 hlineto
          107 164 rmoveto
          30 hlineto
          83 43 -31 -74 hvcurveto
          -6 -178 vlineto
          -34 -172 rmoveto
          24 119 rlineto
          181 hlineto
          -78 -20 -63 -41 -91 hhcurveto
          endchar
        </CharString>
        <CharString name="pi">
          128 -12 63 373 62 hstemhm
          336 72 -72 134.5 hintmask 11100000
          417 -12 rmoveto
          hintmask 11010000
          23 16 5 6 14 hvcurveto
          1 57 rlineto
          hintmask 11100000
          -3 -13 -8 -2 -6 hhcurveto
          -23 -13 11 23 16 40 189 34 134 hvcurveto
          82 hlineto
          13 62 rlineto
          -431 hlineto
          -67 -5 -12 -57 rlineto
          93 hlineto
          -26 -133 -35 -147 -44 -144 75 -7 rcurveline
          38 143 35 149 27 139 rrcurveto
          180 hlineto
          -29 -129 -45 -184 -41 vvcurveto
          -53 24 -29 57 vhcurveto
          endchar
        </CharString>
        <CharString name="plus">
          50 302 57 hstemhm
          222 60 -59 60 hintmask 11000000
          222 103 rmoveto
          60 199 176 57 hlineto
          hintmask 10100000
          -175 195 -60 -195 -175 -57 hlineto
          hintmask 11000000
          174 hlineto
          endchar
        </CharString>
        <CharString name="plus.subs">
          -77 -11 51 hstem
          96 56 vstem
          96 -149 rmoveto
          56 138 126 51 -126 137 -56 -137 -125 -51 125 hlineto
          endchar
        </CharString>
        <CharString name="plus.sups">
          -77 568 51 hstem
          210 56 vstem
          210 430 rmoveto
          56 138 126 51 -126 137 -56 -137 -125 -51 125 hlineto
          endchar
        </CharString>
        <CharString name="plusminus">
          50 0 58 257 58 hstemhm
          222 60 -59 60 hintmask 11100000
          222 130 rmoveto
          60 185 176 58 hlineto
          hintmask 11010000
          -175 181 -60 -181 -175 -58 hlineto
          hintmask 11100000
          174 hlineto
          -174 -315 rmoveto
          175 callsubr
        </CharString>
        <CharString name="product">
          216 570 68 hstem
          97 76 320 76 vstem
          97 -120 rmoveto
          76 690 320 -690 76 758 -472 hlineto
          endchar
        </CharString>
        <CharString name="q">
          107 -184 -21 193 64 382 64 -12 -20 hstemhm
          39 79 hintmask 11101000
          289 -205 rmoveto
          77 hlineto
          hintmask 11011000
          138 691 rlineto
          -62 hlineto
          hintmask 11101000
          116 callgsubr
          61 61 34 51 49 hvcurveto
          2 hlineto
          -30 -119 rlineto
          -115 98 46 callsubr
          endchar
        </CharString>
        <CharString name="q.sups">
          -75 140 callgsubr
          85 59 vstem
          399 716 rmoveto
          -45 hlineto
          -14 -39 1 callsubr
          32 -16 -27 15 -31 hhcurveto
          -91 -86 -97 -122 -77 38 -41 56 41 39 21 34 32 20 callgsubr
          -23 -79 -21 -106 rlineto
          57 hlineto
          -110 178 rmoveto
          -31 -23 24 53 86 60 78 60 22 21 -12 -33 18 hvcurveto
          -26 -134 rlineto
          -39 -30 -39 -23 -32 hhcurveto
          endchar
        </CharString>
        <CharString name="question">
          -21 -12 120 -99 -21 630 64 hstemhm
          94 190 callsubr
          hintmask 01111000
          145 201 -64 callgsubr
          hvcurveto
          hintmask 10111000
          -17 callgsubr
          vhcurveto
          hintmask 01111000
          -29 18 -21 29 vhcurveto
          endchar
        </CharString>
        <CharString name="questiondown">
          -21 -195 64 510 120 hstem
          -4 75 136 113 vstem
          148 -195 rmoveto
          60 56 29 41 38 hvcurveto
          -40 46 rlineto
          -32 -29 -38 -20 -39 hhcurveto
          -53 -32 33 54 123 188 39 10 168 hvcurveto
          -66 6 rlineto
          -14 -151 -193 -36 -161 vvcurveto
          -87 59 -52 93 vhcurveto
          105 574 rmoveto
          38 29 37 33 29 -19 21 -29 -38 -27 -34 -35 -29 16 -22 30 hvcurveto
          endchar
        </CharString>
        <CharString name="quotedbl">
          -23 426 245 hstem
          128 278 vstem
          128 426 114 callsubr
          142 -153 114 callsubr
          endchar
        </CharString>
        <CharString name="quotedblbase">
          -23 7 102 hstem
          87 216 callgsubr
          7 -148 -44 callsubr
          181 -37 -44 callsubr
          endchar
        </CharString>
        <CharString name="quotedblleft">
          -23 434 101 hstem
          110 216 callgsubr
          163 434 rmoveto
          34 callgsubr
          165 hmoveto
          34 callgsubr
          endchar
        </CharString>
        <CharString name="quotedblright">
          -23 598 102 hstem
          207 216 callgsubr
          127 443 -44 callsubr
          181 -37 -44 callsubr
          endchar
        </CharString>
        <CharString name="quoteleft">
          -188 434 101 hstem
          110 53 vstem
          163 434 rmoveto
          34 callgsubr
          endchar
        </CharString>
        <CharString name="quoteright">
          -188 598 102 hstem
          207 53 vstem
          127 443 -44 callsubr
          endchar
        </CharString>
        <CharString name="quotesinglbase">
          -188 7 102 hstem
          87 53 vstem
          7 -148 -44 callsubr
          endchar
        </CharString>
        <CharString name="quotesingle">
          -188 426 245 hstem
          128 113 vstem
          128 426 114 callsubr
          endchar
        </CharString>
        <CharString name="r">
          -88 21 88 callsubr
          hstemhm
          31 349 hintmask 11001000
          -34 callgsubr
          hintmask 10011000
          27 68 rlineto
          hintmask 11001000
          -9 callgsubr
          hintmask 10101000
          143 callsubr
          endchar
        </CharString>
        <CharString name="r.sups">
          -206 671 45 -45 53 hstemhm
          83 229 hintmask 01100000
          83 395 rmoveto
          57 hlineto
          42 210 rlineto
          46 29 28 20 32 hhcurveto
          8 5 0 -4 9 hvcurveto
          19 52 rlineto
          4 -9 -6 1 -11 hhcurveto
          -38 -31 -23 -36 -26 hvcurveto
          -3 hlineto
          hintmask 10100000
          5 51 rlineto
          -47 hlineto
          endchar
        </CharString>
        <CharString name="racute">
          -88 21 88 callsubr
          248 -20 hstemhm
          31 390 hintmask 11001100
          -34 callgsubr
          hintmask 10011100
          27 68 rlineto
          hintmask 11001100
          -9 callgsubr
          hintmask 10101100
          143 callsubr
          113 93 -81 callgsubr
        </CharString>
        <CharString name="radical">
          107 -97 87 hstem
          61 591 vstem
          203 -97 rmoveto
          57 hlineto
          392 917 rlineto
          -58 hlineto
          -324 -769 -23 102 callgsubr
          -3 61 -41 352 -138 -58 6 -44 77 32 rlineto
          endchar
        </CharString>
        <CharString name="rcaron">
          -88 21 88 callsubr
          106 128 callgsubr
          31 416 hintmask 11001011
          -34 callgsubr
          hintmask 10011011
          27 68 rlineto
          hintmask 11001011
          -9 callgsubr
          hintmask 10101101
          143 callsubr
          99 89 rmoveto
          82 hlineto
          -5 callgsubr
          hintmask 11001011
          10 callsubr
        </CharString>
        <CharString name="registered">
          -24 323 34 130 30 70 32 56 35 hstem
          73 37 189 40 59 37 vstem
          235 323 rmoveto
          114 86 105 113 hvcurveto
          99 -1 -74 70 -88 hhcurveto
          -115 -84 -107 -111 -100 74 -69 88 hvcurveto
          3 34 rmoveto
          -80 -48 60 79 96 69 83 90 79 50 -59 -79 -97 -71 -83 -89 hvcurveto
          -69 60 rmoveto
          38 hlineto
          15 70 rlineto
          34 hlineto
          22 -70 rlineto
          40 hlineto
          -28 79 rlineto
          30 10 19 25 30 vvcurveto
          37 -24 21 -39 vhcurveto
          -66 hlineto
          18 -102 rmoveto
          13 70 rlineto
          25 hlineto
          23 10 -11 -19 -24 -19 -16 -30 hvcurveto
          endchar
        </CharString>
        <CharString name="ring">
          87 556 36 121 36 hstem
          238 52 110 52 vstem
          333 556 -59 callsubr
        </CharString>
        <CharString name="s">
          161 callsubr
          hstem
          72 73 127 73 vstem
          -89 callgsubr
          endchar
        </CharString>
        <CharString name="s.sups">
          -159 387 43 251 43 hstem
          109 55 77 55 vstem
          172 387 rmoveto
          76 48 38 62 40 -26 24 -49 27 hvcurveto
          -31 16 -26 15 23 vvcurveto
          26 22 23 34 30 26 -17 -18 19 vhcurveto
          30 36 rlineto
          23 -27 -34 19 -42 hhcurveto
          -64 -49 -40 -58 -39 31 -25 42 -23 hvcurveto
          43 -24 16 -15 -19 vvcurveto
          -30 -23 -21 -40 -35 -29 21 24 -24 vhcurveto
          -35 -33 rlineto
          -32 29 42 -23 46 hhcurveto
          endchar
        </CharString>
        <CharString name="sacute">
          161 callsubr
          219 -20 hstem
          72 73 127 73 vstem
          -89 callgsubr
          79 591 -81 callgsubr
        </CharString>
        <CharString name="scaron">
          161 callsubr
          77 128 callgsubr
          72 73 127 73 hintmask 11101110
          -89 callgsubr
          65 587 rmoveto
          82 hlineto
          hintmask 11110110
          -5 callgsubr
          hintmask 11101110
          10 callsubr
        </CharString>
        <CharString name="scircumflex">
          161 callsubr
          186 56 hstem
          72 73 127 73 vstem
          -89 callgsubr
          -17 580 -74 callgsubr
        </CharString>
        <CharString name="section">
          47 -60 60 624 60 hstemhm
          56 68 24 71 56 70 25 68 hintmask 11100100
          182 -60 rmoveto
          hintmask 11101100
          95 68 64 86 21 -5 18 -8 16 hvcurveto
          hintmask 11110100
          66 30 40 40 77 148 -219 15 95 vvcurveto
          47 38 27 41 43 38 -26 -32 28 vhcurveto
          43 45 rlineto
          42 -39 -53 31 -59 hhcurveto
          -87 -64 -57 -87 -22 6 -19 10 -17 hvcurveto
          hintmask 11101100
          -63 -27 -45 -50 -72 -148 219 -1 -105 vvcurveto
          -46 -39 -33 -50 -48 -47 28 37 -35 vhcurveto
          -41 -50 rlineto
          hintmask 11100100
          -47 47 60 -28 60 hhcurveto
          -58 404 rmoveto
          50 31 31 44 19 vhcurveto
          66 -54 105 -30 -78 vvcurveto
          -53 -26 -26 -46 -17 vhcurveto
          -65 55 -109 23 80 vvcurveto
          endchar
        </CharString>
        <CharString name="semicolon">
          -188 -4 112 249 120 hstemhm
          26 118 -57 113 hintmask 11010000
          134 357 rmoveto
          -57 callgsubr
          -154 -521 rmoveto
          hintmask 11100000
          97 callsubr
        </CharString>
        <CharString name="seven">
          228 callsubr
          572 66 hstem
          105 205 callsubr
          46 218 62 184 199 209 callgsubr
          -398 hlineto
          -14 -66 rlineto
          310 hlineto
          -163 -161 -75 -172 -57 -239 rrcurveto
          endchar
        </CharString>
        <CharString name="seven.c">
          228 callsubr
          591 65 hstem
          109 205 callsubr
          47 226 64 184 200 197 10 49 rcurveline
          -398 hlineto
          -14 -65 rlineto
          310 hlineto
          -165 -171 -75 -173 -59 -247 rrcurveto
          endchar
        </CharString>
        <CharString name="seven.dnom">
          -77 339 51 hstem
          66 271 vstem
          72 hmoveto
          -46 callsubr
          endchar
        </CharString>
        <CharString name="seven.numr">
          -77 605 51 hstem
          116 271 vstem
          122 266 rmoveto
          -46 callsubr
          endchar
        </CharString>
        <CharString name="seven.onum">
          26 508 66 hstem
          80 398 vstem
          85 -74 rmoveto
          81 hlineto
          46 222 60 190 196 209 callgsubr
          -385 hlineto
          -13 -66 203 callsubr
          -160 -161 -73 -177 -58 -244 rrcurveto
          endchar
        </CharString>
        <CharString name="seven.pnum">
          26 21 -21 572 66 hstem
          97 397 vstem
          105 hmoveto
          81 hlineto
          45 218 63 184 190 209 callgsubr
          -384 hlineto
          -13 -66 rlineto
          295 hlineto
          -156 -161 -73 -172 -58 -239 rrcurveto
          endchar
        </CharString>
        <CharString name="seven.subs">
          -77 162 51 hstem
          29 271 vstem
          35 -177 rmoveto
          -46 callsubr
          endchar
        </CharString>
        <CharString name="seven.sups">
          -77 734 51 hstem
          143 271 vstem
          149 395 rmoveto
          -46 callsubr
          endchar
        </CharString>
        <CharString name="seven.tnum">
          50 508 66 hstem
          93 408 vstem
          104 -74 rmoveto
          81 hlineto
          45 222 64 188 197 188 10 50 rcurveline
          -394 hlineto
          -14 -66 rlineto
          306 hlineto
          -162 -162 -75 -177 -58 -243 rrcurveto
          endchar
        </CharString>
        <CharString name="seveneighths">
          340 -12 44 325 45 207 51 hstemhm
          429 95 callsubr
          hintmask 11110100
          102 270 rmoveto
          -46 callsubr
          -7 -282 -56 callsubr
          -29 105 callgsubr
          hintmask 11101010
          -44 callgsubr
          hintmask 11110100
          39 callsubr
          hintmask 11101010
          -48 callgsubr
          hintmask 11110100
          -54 callgsubr
        </CharString>
        <CharString name="six">
          -83 callgsubr
        </CharString>
        <CharString name="six.c">
          50 -12 60 287 57 213 63 hstem
          51 72 246 71 vstem
          123 202 rmoveto
          18 1 17 1 17 vhcurveto
          62 46 58 19 32 hhcurveto
          71 37 -46 -74 -85 -60 -82 -75 -68 -43 62 92 hvcurveto
          106 -214 rmoveto
          121 90 108 130 104 -63 62 -98 -43 -61 -23 -50 -43 hvcurveto
          174 27 88 112 102 hhcurveto
          43 30 -21 -38 22 hvcurveto
          52 41 rlineto
          44 -27 -45 37 -71 hhcurveto
          -173 -129 -193 -271 -126 68 -90 110 hvcurveto
          endchar
        </CharString>
        <CharString name="six.dnom">
          -77 -12 142 callgsubr
          hstem
          24 58 150 56 vstem
          82 143 -88 callgsubr
        </CharString>
        <CharString name="six.numr">
          -77 254 142 callgsubr
          hstem
          74 58 150 56 vstem
          132 409 -88 callgsubr
        </CharString>
        <CharString name="six.onum">
          -83 callgsubr
        </CharString>
        <CharString name="six.pnum">
          -83 callgsubr
        </CharString>
        <CharString name="six.subs">
          -77 -189 142 callgsubr
          hstem
          -13 58 150 56 vstem
          45 -34 -88 callgsubr
        </CharString>
        <CharString name="six.sups">
          -77 383 142 callgsubr
          hstem
          101 58 150 56 vstem
          159 538 -88 callgsubr
        </CharString>
        <CharString name="six.tnum">
          -83 callgsubr
        </CharString>
        <CharString name="slash">
          -90 -160 870 hstem
          -72 490 vstem
          -72 -160 rmoveto
          55 hlineto
          435 870 rlineto
          -56 hlineto
          endchar
        </CharString>
        <CharString name="slash.frac">
          52 callsubr
        </CharString>
        <CharString name="space">
          -230 endchar
        </CharString>
        <CharString name="space.frac">
          -296 endchar
        </CharString>
        <CharString name="sterling">
          50 0 66 217 56.5 -56.5 59 244 64 hstemhm
          146 72 -61 71 hintmask 10111000
          4 hmoveto
          382 hlineto
          12 66 rlineto
          hintmask 10110100
          -259 4 hlineto
          60 57 29 64 91 vvcurveto
          1 140 vlineto
          12 59 rlineto
          hintmask 10111000
          -156 hlineto
          -3 29 -3 28 25 112 callsubr
          -26 3 -31 3 -30 hvcurveto
          hintmask 11010100
          -80 -5 rlineto
          hintmask 10110100
          -11 -54 rlineto
          96 hlineto
          -4 0 -3 -4 vvcurveto
          -96 -49 -83 -95 -47 vhcurveto
          endchar
        </CharString>
        <CharString name="summation">
          55 -120 66 626 66 hstem
          32 458 vstem
          32 -120 rmoveto
          458 66 -360 hlineto
          -1 4 213 311 -207 307 -1 4 rlineto
          329 66 -420 -51 hlineto
          220 -318 -231 -339 rlineto
          endchar
        </CharString>
        <CharString name="t">
          -105 -12 62 374 62 hstem
          69 78 vstem
          -94 callgsubr
          endchar
        </CharString>
        <CharString name="t.sups">
          -208 387 46 237 45 -45 46 hstemhm
          107 59 hintmask 10110000
          187 387 rmoveto
          18 25 6 6 17 hvcurveto
          -10 43 rlineto
          -4 -10 -9 -5 -16 hhcurveto
          -24 -12 15 26 6 1 10 1 9 hvcurveto
          35 171 rlineto
          85 218 callgsubr
          -86 hlineto
          hintmask 11010000
          18 89 rlineto
          -48 hlineto
          -24 -89 -50 -2 rlineto
          hintmask 10110000
          -8 -44 rlineto
          47 hlineto
          -34 -169 rlineto
          -3 -14 -2 -11 -12 vvcurveto
          -43 20 -34 60 vhcurveto
          endchar
        </CharString>
        <CharString name="tcaron">
          -105 -12 62 374 62 62 72 hstem
          69 78 vstem
          -94 callgsubr
          129 560 65 callsubr
        </CharString>
        <CharString name="thorn">
          105 -184 -21 193 64 382 64 214 -20 hstem
          417 79 vstem
          -10 -205 rmoveto
          76 hlineto
          31 159 18 104 rlineto
          2 hlineto
          -41 26 40 153 callsubr
          -60 -57 -33 -39 -48 hvcurveto
          -2 hlineto
          22 96 39 190 -15 callgsubr
          58 -660 rmoveto
          -38 -34 20 50 -27 hvcurveto
          46 233 87 callgsubr
          endchar
        </CharString>
        <CharString name="three">
          50 224 callgsubr
          343 77 -41 78 hintmask 11110000
          187 -1 callgsubr
        </CharString>
</ttFont>
